<svg width="32.000000" height="32.000000" viewBox="0 0 32 32" fill="none" xmlns="http://www.w3.org/2000/svg" xmlns:xlink="http://www.w3.org/1999/xlink">
	<desc>
			Created with Pixso.
	</desc>
	<defs>
		<clipPath id="clip68_26401">
			<rect id="Icon_melocoin" rx="0.000000" width="31.000000" height="31.000000" transform="translate(0.500000 0.500000)" fill="white" fill-opacity="0"/>
		</clipPath>
		<linearGradient x1="7.266058" y1="7.409693" x2="24.967978" y2="25.168238" id="paint_linear_68_26388_0" gradientUnits="userSpaceOnUse">
			<stop stop-color="#FDE600"/>
			<stop offset="0.410000" stop-color="#FFC70D"/>
			<stop offset="0.820000" stop-color="#F4B006"/>
		</linearGradient>
		<radialGradient gradientTransform="translate(17.0851 18.1707) rotate(0) scale(21.0448 21.0384)" cx="0.000000" cy="0.000000" r="1.000000" id="paint_radial_68_26389_0" gradientUnits="userSpaceOnUse">
			<stop offset="0.590000" stop-color="#FFF827" stop-opacity="0.000000"/>
			<stop offset="0.840000" stop-color="#FFFF66"/>
		</radialGradient>
		<radialGradient gradientTransform="translate(7.66594 2.48776) rotate(0) scale(31.1515 31.142)" cx="0.000000" cy="0.000000" r="1.000000" id="paint_radial_68_26390_0" gradientUnits="userSpaceOnUse">
			<stop stop-color="#FFFFCC"/>
			<stop offset="0.420000" stop-color="#FFFF66"/>
			<stop offset="1.000000" stop-color="#FEB40B"/>
		</radialGradient>
		<radialGradient gradientTransform="translate(26.2349 35.9742) rotate(-41.3564) scale(38.6298 31.2008)" cx="0.000000" cy="0.000000" r="1.000000" id="paint_radial_68_26391_0" gradientUnits="userSpaceOnUse">
			<stop offset="0.350000" stop-color="#FDF130" stop-opacity="0.901961"/>
			<stop offset="0.600000" stop-color="#FDF130" stop-opacity="0.000000"/>
		</radialGradient>
		<linearGradient x1="6.173742" y1="-1.014628" x2="14.103031" y2="12.692692" id="paint_linear_68_26392_0" gradientUnits="userSpaceOnUse">
			<stop stop-color="#F38D03"/>
			<stop offset="0.420000" stop-color="#F5A60B"/>
		</linearGradient>
		<radialGradient gradientTransform="translate(17.3703 18.2927) rotate(0) scale(14.103 14.0987)" cx="0.000000" cy="0.000000" r="1.000000" id="paint_radial_68_26393_0" gradientUnits="userSpaceOnUse">
			<stop offset="0.950000" stop-color="#FFF827" stop-opacity="0.000000"/>
			<stop offset="1.000000" stop-color="#FFFF66"/>
		</radialGradient>
		<linearGradient x1="14.717527" y1="9.912210" x2="16.668148" y2="21.131725" id="paint_linear_68_26398_0" gradientUnits="userSpaceOnUse">
			<stop stop-color="#F38302"/>
			<stop offset="0.510000" stop-color="#EB7A01"/>
			<stop offset="1.000000" stop-color="#E76E01"/>
		</linearGradient>
	</defs>
	<rect id="Icon_melocoin" rx="0.000000" width="31.000000" height="31.000000" transform="translate(0.500000 0.500000)" fill="#FFFFFF" fill-opacity="0"/>
	<g clip-path="url(#clip68_26401)">
		<path id="Vector" d="M31.96 16C31.99 13.9 31.6 11.81 30.8 9.87C30 7.93 28.81 6.17 27.3 4.7C25.84 3.18 24.08 1.98 22.13 1.17C20.18 0.36 18.09 -0.04 15.98 -6.11e-5C13.87 -0.04 11.79 0.37 9.84 1.17C7.9 1.98 6.14 3.18 4.68 4.7C3.17 6.16 1.97 7.92 1.17 9.87C0.36 11.81 -0.04 13.9 0 16C-0.04 18.11 0.36 20.2 1.17 22.14C1.97 24.09 3.17 25.85 4.68 27.31C6.14 28.82 7.9 30.02 9.84 30.82C11.79 31.63 13.88 32.03 15.98 31.99C18.09 32.03 20.18 31.63 22.13 30.83C24.08 30.02 25.84 28.83 27.3 27.31C28.81 25.84 30 24.08 30.8 22.14C31.6 20.2 31.99 18.11 31.96 16Z" fill="url(#paint_linear_68_26388_0)" fill-opacity="1.000000" fill-rule="nonzero"/>
		<path id="Vector" d="M27.3 4.69C25.84 3.17 24.08 1.98 22.14 1.17C20.19 0.36 18.1 -0.04 16 -6.11e-5C13.9 -0.04 11.81 0.36 9.86 1.17C7.92 1.98 6.16 3.17 4.7 4.69C3.18 6.15 1.98 7.91 1.17 9.85C0.37 11.8 -0.04 13.89 0 15.99C-0.04 18.1 0.36 20.19 1.17 22.14C1.98 24.09 3.18 25.85 4.7 27.31C6.16 28.82 7.92 30.02 9.86 30.82C11.81 31.63 13.9 32.03 16 31.99C18.1 32.03 20.19 31.63 22.14 30.83C24.08 30.02 25.84 28.82 27.3 27.31C28.81 25.85 30.01 24.09 30.81 22.14C31.62 20.2 32.02 18.11 31.99 16C32.02 13.9 31.62 11.81 30.82 9.86C30.01 7.91 28.82 6.15 27.3 4.69Z" fill="url(#paint_radial_68_26389_0)" fill-opacity="1.000000" fill-rule="nonzero"/>
		<path id="Vector" d="M4.69 27.31C6.15 28.82 7.91 30.02 9.86 30.83C11.8 31.63 13.89 32.03 16 31.99C18.1 32.03 20.19 31.63 22.14 30.82C24.08 30.02 25.84 28.82 27.3 27.31C28.82 25.85 30.01 24.08 30.82 22.14C31.62 20.19 32.02 18.1 31.99 15.99C32.02 13.89 31.62 11.8 30.82 9.85C30.01 7.91 28.82 6.14 27.3 4.68C25.84 3.17 24.08 1.97 22.14 1.17C20.19 0.36 18.1 -0.04 16 -6.11e-5C13.89 -0.04 11.8 0.36 9.86 1.16C7.91 1.97 6.15 3.16 4.69 4.68C3.17 6.14 1.98 7.9 1.17 9.85C0.36 11.8 -0.04 13.89 0 15.99C-0.04 18.1 0.36 20.19 1.17 22.14C1.98 24.09 3.17 25.85 4.69 27.31ZM16 30.39C14.11 30.42 12.23 30.06 10.48 29.33C8.73 28.6 7.15 27.51 5.85 26.14C4.48 24.83 3.4 23.26 2.67 21.51C1.94 19.76 1.58 17.89 1.61 15.99C1.58 14.1 1.94 12.23 2.67 10.48C3.4 8.73 4.48 7.16 5.85 5.85C7.15 4.48 8.73 3.4 10.48 2.67C12.22 1.94 14.1 1.57 15.99 1.6C17.88 1.57 19.76 1.94 21.51 2.67C23.26 3.4 24.83 4.48 26.14 5.85C27.51 7.16 28.59 8.73 29.32 10.48C30.05 12.22 30.41 14.1 30.39 15.99C30.41 17.89 30.05 19.77 29.32 21.51C28.59 23.26 27.51 24.83 26.14 26.14C24.84 27.51 23.26 28.59 21.51 29.32C19.77 30.05 17.89 30.41 16 30.39Z" fill="url(#paint_radial_68_26390_0)" fill-opacity="1.000000" fill-rule="nonzero"/>
		<path id="Vector" d="M4.69 27.31C6.15 28.82 7.91 30.02 9.86 30.83C11.8 31.63 13.89 32.03 16 31.99C18.1 32.03 20.19 31.63 22.14 30.82C24.08 30.02 25.84 28.82 27.3 27.31C28.82 25.85 30.01 24.08 30.82 22.14C31.62 20.19 32.02 18.1 31.99 15.99C32.02 13.89 31.62 11.8 30.82 9.85C30.01 7.91 28.82 6.14 27.3 4.68C25.84 3.17 24.08 1.97 22.14 1.17C20.19 0.36 18.1 -0.04 16 -6.11e-5C13.89 -0.04 11.8 0.36 9.86 1.16C7.91 1.97 6.15 3.16 4.69 4.68C3.17 6.14 1.98 7.9 1.17 9.85C0.36 11.8 -0.04 13.89 0 15.99C-0.04 18.1 0.36 20.19 1.17 22.14C1.98 24.09 3.17 25.85 4.69 27.31Z" fill="url(#paint_radial_68_26391_0)" fill-opacity="1.000000" fill-rule="nonzero"/>
		<path id="Vector" d="M6.73 25.26C7.92 26.52 9.36 27.52 10.96 28.19C12.55 28.87 14.27 29.2 16 29.17C17.73 29.2 19.45 28.86 21.04 28.19C22.64 27.52 24.08 26.52 25.27 25.26C26.52 24.07 27.52 22.63 28.19 21.04C28.86 19.44 29.19 17.73 29.17 16C29.2 13.25 28.37 10.57 26.78 8.34C26.32 7.76 25.82 7.22 25.27 6.73C24.08 5.47 22.64 4.47 21.04 3.8C19.45 3.13 17.73 2.79 16 2.82C14.27 2.79 12.55 3.12 10.96 3.8C9.36 4.47 7.92 5.47 6.73 6.73C5.48 7.92 4.48 9.35 3.81 10.95C3.13 12.55 2.8 14.26 2.83 16C2.78 19.07 3.85 22.05 5.85 24.39C6.12 24.7 6.41 24.99 6.72 25.26L6.73 25.26ZM15.99 27.8C14.44 27.82 12.89 27.53 11.46 26.94C10.02 26.36 8.71 25.49 7.61 24.39C6.5 23.29 5.62 21.99 5.02 20.55C4.43 19.1 4.13 17.56 4.15 16C4.13 14.43 4.43 12.89 5.02 11.44C5.62 10 6.5 8.7 7.61 7.6C8.71 6.5 10.02 5.63 11.46 5.05C12.9 4.46 14.44 4.17 16 4.19C17.55 4.18 19.09 4.47 20.53 5.06C21.97 5.65 23.28 6.52 24.37 7.62C25.47 8.72 26.34 10.02 26.93 11.46C27.52 12.9 27.81 14.44 27.8 16C27.81 17.55 27.52 19.09 26.93 20.53C26.34 21.97 25.47 23.27 24.37 24.37C23.28 25.47 21.97 26.34 20.53 26.93C19.09 27.52 17.55 27.81 16 27.8L15.99 27.8Z" fill="url(#paint_linear_68_26392_0)" fill-opacity="1.000000" fill-rule="nonzero"/>
		<path id="Vector" d="M7.61 24.39C8.71 25.49 10.02 26.36 11.46 26.94C12.9 27.53 14.44 27.82 16 27.8C17.55 27.81 19.09 27.52 20.53 26.93C21.97 26.34 23.28 25.47 24.37 24.37C25.47 23.27 26.34 21.97 26.93 20.53C27.52 19.09 27.81 17.55 27.8 16C27.81 14.44 27.52 12.9 26.93 11.46C26.34 10.02 25.47 8.72 24.37 7.62C23.28 6.52 21.97 5.65 20.53 5.06C19.09 4.47 17.55 4.18 16 4.19C14.44 4.17 12.9 4.46 11.46 5.05C10.02 5.63 8.71 6.5 7.61 7.6C6.5 8.7 5.62 10 5.02 11.44C4.43 12.89 4.13 14.43 4.15 16C4.13 17.56 4.43 19.1 5.02 20.55C5.62 21.99 6.5 23.29 7.61 24.39Z" fill="url(#paint_radial_68_26393_0)" fill-opacity="1.000000" fill-rule="nonzero"/>
		<path id="Vector" d="M10.98 15.56C11.36 15.46 11.76 15.44 12.15 15.51L12.29 14.34L12.15 15.12C11.76 15.05 11.36 15.07 10.98 15.17C10.61 15.25 10.27 15.4 9.97 15.62C9.67 15.84 9.41 16.06 9.22 16.39C8.87 16.9 8.71 17.52 8.77 18.14C8.77 17.65 8.93 17.17 9.21 16.78C9.4 16.46 9.66 16.23 9.96 16.01C10.26 15.79 10.6 15.64 10.97 15.56L10.98 15.56ZM19.5 13.21L19.45 13.26L19.26 15.7C18.87 15.64 18.47 15.65 18.09 15.75C17.73 15.82 17.39 15.98 17.09 16.2C16.8 16.41 16.55 16.7 16.38 17.02C16.02 17.53 15.85 18.15 15.89 18.78C15.93 18.27 16.1 17.78 16.38 17.36L16.38 17.41C16.56 17.09 16.81 16.82 17.1 16.6C17.4 16.38 17.73 16.23 18.09 16.14C18.48 16.07 18.88 16.09 19.26 16.19L19.5 13.26L19.5 13.21ZM13.37 9.26C13.28 9.24 13.19 9.24 13.1 9.27C13.02 9.29 12.94 9.34 12.88 9.41C12.79 9.47 12.72 9.55 12.68 9.64C12.64 9.74 12.62 9.84 12.64 9.95L12.64 10.04C12.66 9.95 12.71 9.87 12.78 9.8C12.86 9.72 12.95 9.67 13.05 9.64C13.16 9.62 13.26 9.62 13.37 9.65L21.56 10.39C21.65 10.39 21.74 10.42 21.83 10.46C21.91 10.5 21.99 10.56 22.05 10.63C22.08 10.69 22.09 10.76 22.1 10.82C22.12 10.84 22.15 10.86 22.16 10.88C22.18 10.91 22.19 10.94 22.19 10.97L22.19 10.78C22.19 10.59 22.14 10.4 22.05 10.24C21.91 10.11 21.74 10.02 21.56 10L13.37 9.26Z" fill="#F5A60B" fill-opacity="1.000000" fill-rule="nonzero"/>
		<path id="Vector" d="M19.5 13.17L19.5 12.82L14.97 12.43L14.49 18.53C14.4 18.97 14.25 19.4 14.05 19.8C13.85 20.13 13.59 20.42 13.28 20.64C12.97 20.87 12.62 21.03 12.24 21.12C11.88 21.2 11.5 21.22 11.13 21.15C10.76 21.08 10.41 20.94 10.1 20.73C9.86 20.6 9.66 20.41 9.51 20.19C9.18 19.83 8.92 19.39 8.77 18.92C8.73 18.65 8.73 18.37 8.77 18.09C8.68 18.48 8.68 18.88 8.77 19.26C8.96 20.03 9.43 20.69 10.09 21.12C10.27 21.24 10.47 21.34 10.67 21.41C11.22 21.63 11.82 21.67 12.38 21.51C12.76 21.45 13.12 21.3 13.43 21.08C13.74 20.86 14 20.57 14.19 20.24C14.43 19.85 14.59 19.42 14.67 18.97L15.16 12.82L19.4 13.21L19.5 13.17ZM22.28 10.34C22.26 10.3 22.23 10.27 22.2 10.24C22.16 10.22 22.13 10.2 22.09 10.19C22.18 10.35 22.23 10.54 22.23 10.73L22.23 11.12L21.55 18.68L21.55 18.97C21.52 19.45 21.38 19.91 21.16 20.34C20.73 21 20.07 21.47 19.31 21.65C18.94 21.76 18.56 21.77 18.19 21.71C17.82 21.64 17.47 21.49 17.16 21.26L16.58 20.78C16.28 20.37 16.08 19.9 15.99 19.41C15.94 19.17 15.94 18.92 15.99 18.68C15.87 19.04 15.87 19.44 15.99 19.8C16.04 20.17 16.17 20.52 16.37 20.83C16.58 21.14 16.85 21.41 17.16 21.6C17.37 21.79 17.62 21.92 17.89 22C18.41 22.19 18.97 22.22 19.5 22.09C20.27 21.91 20.93 21.44 21.35 20.78C21.55 20.38 21.66 19.95 21.66 19.51L22.1 14.24C22.19 13.46 22.27 12.7 22.34 11.95L22.34 11.6C22.35 11.6 22.35 11.59 22.35 11.58C22.36 11.57 22.36 11.57 22.36 11.56C22.36 11.55 22.36 11.54 22.35 11.53C22.35 11.52 22.35 11.51 22.34 11.51L22.44 10.92C22.42 10.71 22.36 10.51 22.24 10.34L22.28 10.34Z" fill="#FFFF66" fill-opacity="1.000000" fill-rule="nonzero"/>
		<path id="Vector" d="M19.5 12.82L19.5 13.17L19.26 16.09C18.88 15.99 18.48 15.98 18.09 16.04C17.73 16.13 17.4 16.28 17.1 16.5C16.81 16.72 16.56 16.95 16.38 17.26C16.1 17.68 15.93 18.17 15.89 18.68C15.84 18.92 15.84 19.17 15.89 19.41C15.98 19.9 16.18 20.37 16.48 20.78C16.31 20.43 16.18 20.07 16.09 19.7C16.01 19.34 16.02 18.96 16.1 18.6C16.19 18.24 16.35 17.9 16.58 17.6C16.74 17.3 16.97 17.08 17.25 16.87C17.53 16.66 17.85 16.51 18.18 16.43C18.22 16.43 18.26 16.41 18.28 16.39C18.57 16.32 18.87 16.31 19.16 16.34L19.5 16.34L19.75 13.17L19.75 13.07L19.5 12.82ZM13.07 10.04L13.22 9.95C13.28 9.92 13.35 9.91 13.42 9.91C13.48 9.91 13.55 9.92 13.61 9.95L21.8 10.73C21.86 10.72 21.91 10.73 21.96 10.75C22.01 10.76 22.06 10.79 22.1 10.82C22.09 10.76 22.08 10.69 22.05 10.63C21.99 10.56 21.91 10.5 21.83 10.46C21.74 10.42 21.65 10.39 21.56 10.39L13.37 9.65C13.27 9.62 13.16 9.62 13.05 9.64C12.95 9.67 12.86 9.72 12.78 9.8C12.71 9.87 12.66 9.95 12.64 10.04L12.54 10.58C12.47 11.36 12.4 12.14 12.34 12.92C12.34 13.31 12.29 13.7 12.29 14.09L12.29 14.34L12.15 15.51C11.76 15.44 11.36 15.46 10.98 15.56C10.61 15.64 10.27 15.79 9.97 16.01C9.67 16.23 9.41 16.46 9.22 16.78C8.94 17.16 8.79 17.62 8.77 18.09C8.73 18.37 8.73 18.65 8.77 18.92C8.92 19.39 9.17 19.83 9.5 20.19C9.28 19.9 9.11 19.57 9.02 19.21L9.02 19.17C8.93 18.81 8.93 18.43 9 18.07C9.08 17.71 9.2 17.36 9.42 17.07C9.82 16.46 10.42 16.01 11.12 15.8L11.22 15.8C11.51 15.74 11.81 15.72 12.1 15.75C12.19 15.78 12.29 15.79 12.39 15.8L12.88 10.53C12.87 10.44 12.89 10.35 12.92 10.27C12.96 10.18 13.01 10.11 13.07 10.04Z" fill="#D26707" fill-opacity="1.000000" fill-rule="nonzero"/>
		<path id="Vector" d="M13.22 9.95L13.07 10.04C13.01 10.11 12.96 10.18 12.92 10.27C12.89 10.35 12.87 10.44 12.88 10.53L12.39 15.8C12.29 15.79 12.19 15.78 12.1 15.75C11.81 15.72 11.51 15.74 11.22 15.8L11.12 15.8C10.42 16.01 9.82 16.46 9.42 17.07C9.2 17.36 9.09 17.71 9.01 18.07C8.94 18.43 8.94 18.81 9.03 19.17L9.03 19.21C9.12 19.57 9.29 19.9 9.51 20.19C9.66 20.41 9.86 20.6 10.1 20.73C10.41 20.94 10.76 21.08 11.13 21.15C11.5 21.22 11.88 21.2 12.25 21.12C12.62 21.03 12.97 20.87 13.28 20.64C13.59 20.42 13.85 20.13 14.05 19.8C14.25 19.4 14.4 18.97 14.49 18.53L14.93 12.43L19.46 12.82L19.71 13.07L19.71 13.17L19.5 16.34L19.16 16.34C18.87 16.31 18.57 16.32 18.28 16.39C18.26 16.41 18.22 16.43 18.18 16.43C17.85 16.51 17.53 16.66 17.25 16.87C16.97 17.08 16.74 17.3 16.58 17.6C16.36 17.9 16.21 18.24 16.13 18.61C16.05 18.97 16.06 19.34 16.14 19.7C16.23 20.07 16.36 20.43 16.53 20.78L17.11 21.26C17.42 21.49 17.77 21.64 18.14 21.71C18.51 21.77 18.89 21.76 19.26 21.65C20.02 21.47 20.68 21 21.11 20.34C21.33 19.91 21.47 19.45 21.5 18.97L21.5 18.68L22.18 11.12L22.18 10.92C22.18 10.89 22.17 10.86 22.15 10.84C22.14 10.81 22.11 10.79 22.09 10.78C22.05 10.74 22 10.71 21.95 10.7C21.9 10.68 21.85 10.67 21.79 10.68L13.6 9.9C13.47 9.86 13.34 9.88 13.22 9.95Z" fill="url(#paint_linear_68_26398_0)" fill-opacity="1.000000" fill-rule="nonzero"/>
		<path id="Vector" d="M13.65 9.9C13.59 9.87 13.52 9.86 13.45 9.86C13.39 9.86 13.32 9.87 13.26 9.9L13.11 10C13.05 10.06 13 10.13 12.96 10.22C12.93 10.3 12.91 10.39 12.92 10.48L12.43 15.75C12.33 15.74 12.23 15.73 12.14 15.7C11.84 15.67 11.55 15.69 11.26 15.75L11.16 15.75C10.46 15.96 9.86 16.41 9.46 17.02C9.23 17.32 9.13 17.66 9.05 18.02C8.98 18.38 8.98 18.76 9.07 19.12L9.07 19.17C9.16 19.52 9.32 19.85 9.55 20.14C9.7 20.36 9.9 20.55 10.14 20.68C10.45 20.89 10.8 21.03 11.17 21.1C11.54 21.17 11.92 21.16 12.28 21.07C12.66 20.98 13.01 20.82 13.32 20.59C13.63 20.37 13.89 20.08 14.09 19.75C14.29 19.35 14.44 18.92 14.53 18.48L14.97 12.39L19.5 12.78L19.75 13.02L19.75 13.12L19.5 16.34L19.16 16.34C18.87 16.31 18.57 16.32 18.28 16.39C18.26 16.41 18.22 16.43 18.18 16.43C17.85 16.51 17.53 16.66 17.25 16.87C16.97 17.08 16.74 17.3 16.58 17.6C16.36 17.9 16.2 18.24 16.13 18.61C16.05 18.97 16.06 19.34 16.14 19.7C16.22 20.07 16.36 20.43 16.53 20.78L17.11 21.26C17.42 21.49 17.77 21.64 18.14 21.71C18.51 21.77 18.89 21.76 19.26 21.65C20.02 21.47 20.68 21 21.11 20.34C21.33 19.91 21.47 19.45 21.5 18.97L21.5 18.68L22.18 11.12L22.18 10.92C22.18 10.89 22.17 10.86 22.16 10.83C22.14 10.81 22.11 10.79 22.09 10.78C22.05 10.74 22 10.71 21.95 10.7C21.9 10.68 21.85 10.67 21.79 10.68L13.65 9.9Z" fill="#FDEC22" fill-opacity="0.330000" fill-rule="nonzero"/>
	</g>
</svg>
