<svg width="337.000000" height="62.000000" viewBox="0 0 337 62" fill="none" xmlns="http://www.w3.org/2000/svg" xmlns:xlink="http://www.w3.org/1999/xlink">
	<desc>
			Created with Pixso.
	</desc>
	<defs>
		<filter id="filter_68_36009_dd" x="200.000000" y="12.765869" width="134.000000" height="47.000000" filterUnits="userSpaceOnUse" color-interpolation-filters="sRGB">
			<feFlood flood-opacity="0" result="BackgroundImageFix"/>
			<feColorMatrix in="SourceAlpha" type="matrix" values="0 0 0 0 0 0 0 0 0 0 0 0 0 0 0 0 0 0 127 0" result="hardAlpha"/>
			<feOffset dx="0" dy="4"/>
			<feGaussianBlur stdDeviation="1"/>
			<feComposite in2="hardAlpha" operator="out" k2="-1" k3="1"/>
			<feColorMatrix type="matrix" values="0 0 0 0 0.4549 0 0 0 0 0.19608 0 0 0 0 0.63922 0 0 0 0.5 0"/>
			<feBlend mode="normal" in2="BackgroundImageFix" result="effect_dropShadow_1"/>
			<feBlend mode="normal" in="SourceGraphic" in2="effect_dropShadow_1" result="shape"/>
			<feColorMatrix in="SourceAlpha" type="matrix" values="0 0 0 0 0 0 0 0 0 0 0 0 0 0 0 0 0 0 127 0" result="hardAlpha"/>
			<feOffset dx="0" dy="0"/>
			<feGaussianBlur stdDeviation="2"/>
			<feComposite in2="hardAlpha" operator="arithmetic" k2="-1" k3="1"/>
			<feColorMatrix type="matrix" values="0 0 0 0 0.5098 0 0 0 0 0.95294 0 0 0 0 0.20392 0 0 0 0.73 0"/>
			<feBlend mode="normal" in2="shape" result="effect_innerShadow_2"/>
			<feColorMatrix in="SourceAlpha" type="matrix" values="0 0 0 0 0 0 0 0 0 0 0 0 0 0 0 0 0 0 127 0" result="hardAlpha"/>
			<feOffset dx="0" dy="1"/>
			<feGaussianBlur stdDeviation="0.666667"/>
			<feComposite in2="hardAlpha" operator="arithmetic" k2="-1" k3="1"/>
			<feColorMatrix type="matrix" values="0 0 0 0 1 0 0 0 0 1 0 0 0 0 1 0 0 0 1 0"/>
			<feBlend mode="normal" in2="effect_innerShadow_2" result="effect_innerShadow_3"/>
			<feColorMatrix in="SourceAlpha" type="matrix" values="0 0 0 0 0 0 0 0 0 0 0 0 0 0 0 0 0 0 127 0" result="hardAlpha"/>
			<feOffset dx="0" dy="-3"/>
			<feGaussianBlur stdDeviation="1.33333"/>
			<feComposite in2="hardAlpha" operator="arithmetic" k2="-1" k3="1"/>
			<feColorMatrix type="matrix" values="0 0 0 0 0.18824 0 0 0 0 0.60392 0 0 0 0 0 0 0 0 1 0"/>
			<feBlend mode="normal" in2="effect_innerShadow_3" result="effect_innerShadow_4"/>
		</filter>
		<clipPath id="clip68_36019">
			<rect id="фрейм 3" width="337.000000" height="62.000000" fill="white" fill-opacity="0"/>
		</clipPath>
		<radialGradient gradientTransform="translate(168 28) rotate(90) scale(51.2418 51.2418)" cx="0.000000" cy="0.000000" r="1.000000" id="paint_radial_68_35977_0" gradientUnits="userSpaceOnUse">
			<stop stop-color="#FFAEF9" stop-opacity="0.870588"/>
			<stop offset="0.463542" stop-color="#FFC7FA" stop-opacity="0.329412"/>
			<stop offset="0.770833" stop-color="#FFD3FB" stop-opacity="0.105882"/>
			<stop offset="1.000000" stop-color="#FFDDFB" stop-opacity="0.000000"/>
		</radialGradient>
		<radialGradient gradientTransform="translate(169.012 29.3727) rotate(90) scale(52.5945 52.5944)" cx="0.000000" cy="0.000000" r="1.000000" id="paint_radial_68_35978_0" gradientUnits="userSpaceOnUse">
			<stop offset="0.197917" stop-color="#FFF5FE" stop-opacity="0.870588"/>
			<stop offset="0.578125" stop-color="#FFE6FD" stop-opacity="0.329412"/>
			<stop offset="0.817708" stop-color="#FFE3FC" stop-opacity="0.105882"/>
			<stop offset="1.000000" stop-color="#FFDDFB" stop-opacity="0.000000"/>
		</radialGradient>
		<linearGradient x1="169.035141" y1="45.159309" x2="169.035141" y2="57.559307" id="paint_linear_68_35980_0" gradientUnits="userSpaceOnUse">
			<stop stop-color="#BB6D1C"/>
			<stop offset="0.470000" stop-color="#ECA61E"/>
			<stop offset="0.650000" stop-color="#FACD2D"/>
			<stop offset="0.820000" stop-color="#FFEC66"/>
			<stop offset="1.000000" stop-color="#F8C82B"/>
		</linearGradient>
		<linearGradient x1="189.535004" y1="23.929367" x2="201.535004" y2="23.929367" id="paint_linear_68_35981_0" gradientUnits="userSpaceOnUse">
			<stop stop-color="#F8C82B"/>
			<stop offset="1.000000" stop-color="#ECA71E"/>
		</linearGradient>
		<radialGradient gradientTransform="translate(168.836 10.2327) rotate(0) scale(22.95 36.261)" cx="0.000000" cy="0.000000" r="1.000000" id="paint_radial_68_35982_0" gradientUnits="userSpaceOnUse">
			<stop stop-color="#FFEC66"/>
			<stop offset="0.280000" stop-color="#FFDD33"/>
			<stop offset="0.720000" stop-color="#ECA61E"/>
			<stop offset="0.890000" stop-color="#E07F20"/>
			<stop offset="1.000000" stop-color="#FACD2D"/>
		</radialGradient>
		<linearGradient x1="148.485275" y1="23.966305" x2="136.469681" y2="23.966305" id="paint_linear_68_35983_0" gradientUnits="userSpaceOnUse">
			<stop stop-color="#F8C82B"/>
			<stop offset="1.000000" stop-color="#ECA71E"/>
		</linearGradient>
		<linearGradient x1="192.130646" y1="32.413597" x2="192.130646" y2="24.462095" id="paint_linear_68_35984_0" gradientUnits="userSpaceOnUse">
			<stop stop-color="#D3971E"/>
			<stop offset="1.000000" stop-color="#ECA61E" stop-opacity="0.000000"/>
		</linearGradient>
		<linearGradient x1="145.853378" y1="32.503693" x2="145.853378" y2="24.552195" id="paint_linear_68_35985_0" gradientUnits="userSpaceOnUse">
			<stop stop-color="#D3971E"/>
			<stop offset="1.000000" stop-color="#ECA61E" stop-opacity="0.000000"/>
		</linearGradient>
		<radialGradient gradientTransform="translate(168.85 3.62721) rotate(0) scale(41.2362 41.2362)" cx="0.000000" cy="0.000000" r="1.000000" id="paint_radial_68_35986_0" gradientUnits="userSpaceOnUse">
			<stop offset="0.630000" stop-color="#ECA61E" stop-opacity="0.000000"/>
			<stop offset="1.000000" stop-color="#B8691C"/>
		</radialGradient>
		<radialGradient gradientTransform="translate(169.1 11.5539) rotate(0) scale(29.3043 29.3043)" cx="0.000000" cy="0.000000" r="1.000000" id="paint_radial_68_35989_0" gradientUnits="userSpaceOnUse">
			<stop stop-color="#FFE756"/>
			<stop offset="0.296875" stop-color="#FFDD33"/>
			<stop offset="0.447917" stop-color="#F1C22A"/>
			<stop offset="0.682292" stop-color="#E2A420"/>
			<stop offset="0.910000" stop-color="#EBB626"/>
		</radialGradient>
		<radialGradient gradientTransform="translate(169.1 11.5538) rotate(0) scale(29.3043 29.3043)" cx="0.000000" cy="0.000000" r="1.000000" id="paint_radial_68_35990_0" gradientUnits="userSpaceOnUse">
			<stop stop-color="#FFFD6C"/>
			<stop offset="0.480000" stop-color="#FFE048"/>
			<stop offset="1.000000" stop-color="#E2A420"/>
		</radialGradient>
		<radialGradient gradientTransform="translate(169.035 12.3304) rotate(0) scale(27.5396 27.5396)" cx="0.000000" cy="0.000000" r="1.000000" id="paint_radial_68_35993_0" gradientUnits="userSpaceOnUse">
			<stop stop-color="#FFE756"/>
			<stop offset="0.390000" stop-color="#FFDD33"/>
			<stop offset="0.750000" stop-color="#E2A420"/>
			<stop offset="0.910000" stop-color="#EBB626"/>
		</radialGradient>
		<radialGradient gradientTransform="translate(169.035 12.3304) rotate(0) scale(27.5396 27.5396)" cx="0.000000" cy="0.000000" r="1.000000" id="paint_radial_68_35994_0" gradientUnits="userSpaceOnUse">
			<stop stop-color="#FFFD6C"/>
			<stop offset="0.480000" stop-color="#FFE048"/>
			<stop offset="1.000000" stop-color="#E2A420"/>
		</radialGradient>
		<radialGradient gradientTransform="translate(179.977 6.74715) rotate(30.6689) scale(8.14878 8.14878)" cx="0.000000" cy="0.000000" r="1.000000" id="paint_radial_68_35996_0" gradientUnits="userSpaceOnUse">
			<stop stop-color="#FFED5B"/>
			<stop offset="0.750000" stop-color="#FFE43A"/>
		</radialGradient>
		<radialGradient gradientTransform="translate(177.268 13.3974) rotate(30.669) scale(4.38933 4.38934)" cx="0.000000" cy="0.000000" r="1.000000" id="paint_radial_68_35997_0" gradientUnits="userSpaceOnUse">
			<stop stop-color="#FFF9AF"/>
			<stop offset="0.290000" stop-color="#FFED5A"/>
			<stop offset="0.580000" stop-color="#FFE94B"/>
			<stop offset="1.000000" stop-color="#F3BF2D"/>
		</radialGradient>
		<radialGradient gradientTransform="translate(173.012 11.3622) rotate(30.6689) scale(3.06954 3.06954)" cx="0.000000" cy="0.000000" r="1.000000" id="paint_radial_68_35999_0" gradientUnits="userSpaceOnUse">
			<stop offset="0.109375" stop-color="#FFFFBF"/>
			<stop offset="0.364583" stop-color="#FFFD6D"/>
			<stop offset="0.619792" stop-color="#FFF44D"/>
			<stop offset="1.000000" stop-color="#FFD03D"/>
		</radialGradient>
		<radialGradient gradientTransform="translate(174.2 6.65955) rotate(30.6689) scale(5.68915 5.68915)" cx="0.000000" cy="0.000000" r="1.000000" id="paint_radial_68_36000_0" gradientUnits="userSpaceOnUse">
			<stop offset="0.078125" stop-color="#FFFFBF"/>
			<stop offset="0.473958" stop-color="#FFFC6A"/>
			<stop offset="0.854167" stop-color="#FFF349"/>
		</radialGradient>
		<radialGradient gradientTransform="translate(171.567 16.126) rotate(29.7449) scale(16.7211 16.7211)" cx="0.000000" cy="0.000000" r="1.000000" id="paint_radial_68_36016_0" gradientUnits="userSpaceOnUse">
			<stop stop-color="#FFDF3A"/>
			<stop offset="0.600000" stop-color="#F5C22D"/>
			<stop offset="1.000000" stop-color="#E2AB31"/>
		</radialGradient>
		<radialGradient gradientTransform="translate(167.07 29.4655) rotate(29.7449) scale(7.60271 7.60271)" cx="0.000000" cy="0.000000" r="1.000000" id="paint_radial_68_36017_0" gradientUnits="userSpaceOnUse">
			<stop stop-color="#FFEFA1"/>
			<stop offset="0.360000" stop-color="#FFDF3A"/>
			<stop offset="0.600000" stop-color="#F5C22D"/>
			<stop offset="0.890000" stop-color="#E2AB31"/>
		</radialGradient>
	</defs>
	<rect id="фрейм 3" width="337.000000" height="62.000000" fill="#FFFFFF" fill-opacity="0"/>
	<g clip-path="url(#clip68_36019)">
		<rect id="Bg" y="6.769531" rx="26.000000" width="337.000000" height="52.000000" fill="#DDB3F1" fill-opacity="0.200000"/>
		<path id="Vector" d="M183.68 57.25L183.68 57.1C183.64 56.98 183.59 56.87 183.53 56.75C183.24 56.09 181.28 55.25 177.63 54.25C174.07 53.32 172.08 51.35 171.63 48.35C171.44 47 171.4 45.52 171.53 44.16C169.85 44.53 168.11 44.53 166.43 44.16C166.52 45.53 166.45 47 166.23 48.35C165.87 51.35 163.85 53.32 160.18 54.25C156.58 55.25 154.67 56.05 154.43 56.75C154.37 56.86 154.34 56.98 154.33 57.1C154.3 57.18 154.3 57.27 154.33 57.35C154.27 58.42 154.57 58.95 155.23 58.95L182.63 58.95C183.42 59 183.75 58.42 183.68 57.25Z" fill="url(#paint_linear_68_35980_0)" fill-opacity="1.000000" fill-rule="nonzero"/>
		<path id="Vector" d="M194.68 14.4C195.26 14.78 195.68 15.35 195.88 16C195.99 16.58 196.04 17.17 196.03 17.75C196.03 18.05 195.97 18.37 195.93 18.7C195.74 20.06 195.3 21.36 194.63 22.55C193.64 24.24 192.37 25.74 190.88 27C189.86 27.97 188.76 28.84 187.58 29.6C187.23 31.11 186.68 32.55 185.93 33.9L183.38 38.6C186.4 36.87 189.23 34.82 191.83 32.5C194.43 30.2 196.68 27.52 198.48 24.55C199.62 22.43 200.39 20.13 200.78 17.75C201.04 16.17 200.97 14.56 200.58 13C200.21 11.9 199.51 10.94 198.58 10.25C197.52 9.54 196.26 9.19 194.98 9.25L189.1 9.25L188.85 13.8L192.7 13.8C193.11 13.8 193.52 13.87 193.9 14C194.18 14.1 194.44 14.23 194.68 14.4Z" fill="url(#paint_linear_68_35981_0)" fill-opacity="1.000000" fill-rule="nonzero"/>
		<path id="Vector" d="M149.1 13.8C149.3 17.97 149.58 22.12 149.95 26.25C150.09 28.93 150.8 31.54 152.05 33.9L154.55 38.6C155.75 39.33 157.02 40.05 158.35 40.75L159 41.2C161.36 42.52 163.88 43.53 166.5 44.2C168.18 44.57 169.92 44.57 171.6 44.2C174.17 43.53 176.64 42.52 178.95 41.2C179.21 41.08 179.47 40.93 179.7 40.75C181 40.05 182.24 39.33 183.4 38.6L185.95 33.9C186.7 32.55 187.25 31.11 187.6 29.6C187.87 28.51 188.04 27.38 188.1 26.25C188.44 22.13 188.71 17.99 188.9 13.85L189.1 9.25C189.17 7.88 189.24 6.45 189.3 4.95C189.36 3.45 188.52 2.75 186.88 2.75L151.1 2.75C149.47 2.75 148.65 3.48 148.65 4.95C148.65 6.42 148.79 7.88 148.85 9.25L149.1 13.8Z" fill="url(#paint_radial_68_35982_0)" fill-opacity="1.000000" fill-rule="nonzero"/>
		<path id="Vector" d="M148.9 9.28L143.1 9.28C141.83 9.21 140.56 9.57 139.51 10.28C138.53 10.95 137.79 11.93 137.41 13.05C137.06 14.6 137 16.19 137.23 17.75C137.63 20.13 138.41 22.42 139.55 24.54C141.34 27.54 143.59 30.23 146.2 32.54C148.8 34.87 151.54 36.85 154.54 38.61L152.1 33.97C151.35 32.61 150.79 31.16 150.42 29.65C149.24 28.88 148.13 28.01 147.1 27.04C145.6 25.78 144.32 24.27 143.33 22.58C142.71 21.38 142.3 20.09 142.1 18.75C142.1 18.41 142.04 18.09 142.01 17.75C141.99 17.16 142.06 16.56 142.2 15.98C142.39 15.34 142.8 14.78 143.36 14.4C143.6 14.27 143.84 14.16 144.1 14.07C144.48 13.91 144.89 13.84 145.31 13.84L149.1 13.84L148.9 9.28Z" fill="url(#paint_linear_68_35983_0)" fill-opacity="1.000000" fill-rule="nonzero"/>
		<path id="Vector" d="M200.57 12.96C200.2 11.84 199.46 10.88 198.48 10.22C197.44 9.5 196.17 9.17 194.9 9.25L189.08 9.26L188.88 13.8L192.73 13.79C193.14 13.79 193.5 13.87 193.91 13.99C194.18 14.12 194.46 14.21 194.7 14.39C195.28 14.86 195.73 15.29 195.89 16.02C196.02 16.5 196.04 17.22 196.07 17.71C196.07 18.02 196 18.35 195.97 18.71C195.76 20.04 195.32 21.33 194.67 22.52C193.68 24.21 192.41 25.73 190.91 26.99C189.89 27.95 188.78 28.82 187.6 29.59C187.24 31.1 186.68 32.55 185.93 33.91L183.42 38.61C186.43 36.85 189.25 34.8 191.84 32.47C194.45 30.18 196.69 27.49 198.48 24.52C199.61 22.39 200.4 20.08 200.78 17.7C201.02 16.12 200.94 14.52 200.57 12.96Z" fill="url(#paint_linear_68_35984_0)" fill-opacity="1.000000" fill-rule="nonzero"/>
		<path id="Vector" d="M141.99 17.69C142 17.22 142.03 16.67 142.14 16.21C142.31 15.48 142.68 14.92 143.26 14.45C143.51 14.29 143.83 14.19 144.1 14.07C144.48 13.91 144.89 13.84 145.31 13.84L149.1 13.84L148.9 9.28L143.1 9.28C141.83 9.21 140.56 9.57 139.51 10.28C138.53 10.95 137.79 11.93 137.41 13.05C137.06 14.6 137 16.19 137.23 17.75C137.63 20.13 138.41 22.42 139.55 24.54C141.34 27.54 143.59 30.23 146.2 32.54C148.8 34.87 151.55 36.85 154.55 38.61L152.1 33.97C151.35 32.61 150.82 31.17 150.45 29.66C149.27 28.89 148.13 28.01 147.1 27.04C145.6 25.78 144.32 24.27 143.33 22.58C142.71 21.38 142.3 20.09 142.1 18.75C142.03 18.42 142.02 18.04 141.99 17.69Z" fill="url(#paint_linear_68_35985_0)" fill-opacity="1.000000" fill-rule="nonzero"/>
		<path id="Vector" d="M189.36 4.99C189.36 3.51 188.54 2.78 186.9 2.78L151.11 2.78C149.47 2.78 148.65 3.51 148.65 4.97C148.74 6.45 148.82 7.88 148.88 9.24L149.11 13.78C149.33 17.96 149.61 22.11 149.95 26.24C150.1 28.91 150.81 31.52 152.04 33.91L154.55 38.61C155.76 39.32 156.98 40.05 158.32 40.76C158.54 40.9 158.76 41.05 159.02 41.21C161.38 42.51 163.89 43.51 166.5 44.21C168.19 44.58 169.93 44.58 171.62 44.21C174.18 43.51 176.65 42.5 178.97 41.21C179.24 41.06 179.49 40.9 179.71 40.75C181.01 40.04 182.25 39.32 183.43 38.61L185.94 33.91C187.21 31.55 187.95 28.95 188.11 26.28C188.42 22.16 188.69 18 188.9 13.82L189.11 9.26C189.22 7.9 189.3 6.47 189.36 4.99Z" fill="url(#paint_radial_68_35986_0)" fill-opacity="1.000000" fill-rule="nonzero"/>
		<path id="Vector" d="M178.29 34.03C179.5 32.85 180.47 31.43 181.13 29.86C181.79 28.29 182.13 26.61 182.13 24.9C182.15 23.18 181.83 21.48 181.16 19.89C180.5 18.3 179.53 16.86 178.29 15.66C177.1 14.44 175.67 13.47 174.09 12.82C172.51 12.17 170.81 11.84 169.1 11.87C167.39 11.85 165.69 12.17 164.11 12.83C162.53 13.48 161.1 14.44 159.91 15.66C158.67 16.86 157.68 18.29 157.02 19.88C156.35 21.47 156.02 23.18 156.04 24.9C156.04 26.21 156.23 27.51 156.61 28.75C157.25 30.76 158.39 32.58 159.91 34.04C161.09 35.29 162.51 36.28 164.1 36.95C165.68 37.62 167.38 37.96 169.1 37.93C170.82 37.96 172.52 37.63 174.11 36.96C175.69 36.28 177.11 35.29 178.29 34.03Z" fill="#D27E1C" fill-opacity="1.000000" fill-rule="nonzero"/>
		<path id="Vector" d="M178.04 15.84C176.87 14.65 175.47 13.71 173.92 13.07C172.37 12.44 170.71 12.13 169.04 12.16C167.38 12.14 165.73 12.45 164.2 13.08C162.66 13.71 161.27 14.65 160.12 15.84C158.89 17.01 157.92 18.42 157.27 19.98C156.61 21.54 156.28 23.21 156.3 24.9C156.3 25.91 156.39 26.92 156.58 27.9C157.24 29.88 158.37 31.67 159.88 33.11C161.06 34.36 162.48 35.34 164.05 36.01C165.63 36.67 167.33 37.01 169.04 36.99C170.76 37.03 172.47 36.69 174.06 36.02C175.64 35.35 177.07 34.35 178.25 33.09C179.78 31.67 180.91 29.88 181.55 27.88C181.77 26.9 181.88 25.89 181.88 24.88C181.89 23.2 181.56 21.52 180.9 19.97C180.23 18.41 179.26 17.01 178.04 15.84Z" fill="url(#paint_radial_68_35989_0)" fill-opacity="1.000000" fill-rule="nonzero"/>
		<path id="Vector" d="M178.27 14.75C177.07 13.52 175.64 12.55 174.05 11.9C172.46 11.24 170.76 10.92 169.04 10.95C167.34 10.94 165.65 11.27 164.08 11.93C162.51 12.58 161.09 13.54 159.9 14.75C158.66 15.94 157.67 17.38 157.01 18.96C156.35 20.55 156.02 22.26 156.04 23.97C156.04 25.3 156.23 26.61 156.6 27.88C156.41 26.9 156.32 25.89 156.32 24.88C156.3 23.19 156.63 21.52 157.29 19.96C157.94 18.4 158.92 16.99 160.14 15.82C161.29 14.64 162.68 13.7 164.21 13.07C165.74 12.45 167.38 12.14 169.04 12.16C170.71 12.13 172.37 12.44 173.92 13.07C175.47 13.71 176.87 14.65 178.04 15.84C179.26 17.01 180.23 18.42 180.89 19.98C181.55 21.54 181.88 23.21 181.86 24.9C181.86 25.91 181.75 26.92 181.53 27.9C181.87 26.62 182.04 25.3 182.04 23.97C182.07 22.26 181.75 20.56 181.1 18.98C180.45 17.39 179.49 15.95 178.27 14.75Z" fill="url(#paint_radial_68_35990_0)" fill-opacity="1.000000" fill-rule="nonzero"/>
		<path id="Vector" d="M176.93 14.25C176.77 14.52 176.66 14.82 176.62 15.13C176.58 15.44 176.6 15.75 176.68 16.05C176.75 16.36 176.87 16.65 177.05 16.91C177.23 17.17 177.46 17.39 177.73 17.55C178.01 17.72 178.31 17.82 178.63 17.87C178.95 17.91 179.27 17.89 179.58 17.8C179.89 17.74 180.19 17.6 180.45 17.41C180.7 17.22 180.92 16.98 181.08 16.7C181.27 16.43 181.38 16.09 181.38 15.75C181.39 15.74 181.39 15.72 181.39 15.7C181.39 15.69 181.39 15.67 181.38 15.65L181.38 15.6L181.88 10.05L185.53 10.45L185.53 9.65C185.52 9.37 185.48 9.11 185.43 8.9C185.37 8.65 185.26 8.4 185.11 8.19C184.95 7.97 184.76 7.79 184.53 7.65C184.29 7.52 184.04 7.42 183.78 7.35L180.78 7.1L180.23 13.5L180.08 13.45C179.82 13.28 179.53 13.15 179.22 13.09C178.91 13.03 178.59 13.04 178.28 13.1C177.71 13.31 177.23 13.72 176.93 14.25Z" fill="#DF8A1D" fill-opacity="0.500000" fill-rule="nonzero"/>
		<path id="Vector" d="M185.08 9.8L185.08 9C185.08 8.72 185.04 8.47 184.98 8.25C184.92 8 184.81 7.75 184.65 7.54C184.5 7.32 184.3 7.14 184.08 7C183.84 6.87 183.59 6.77 183.33 6.7L180.45 6.45L179.88 12.87C180.18 13.13 180.43 13.44 180.6 13.81C180.77 14.17 180.88 14.65 180.88 15.06L181.45 9.4L185.08 9.8Z" fill="url(#paint_radial_68_35996_0)" fill-opacity="1.000000" fill-rule="nonzero"/>
		<path id="Vector" d="M176.18 15.4C176.25 15.71 176.37 16 176.55 16.26C176.73 16.52 176.96 16.74 177.23 16.9C177.51 17.07 177.81 17.17 178.13 17.21C178.45 17.26 178.77 17.24 179.08 17.15C179.39 17.09 179.69 16.95 179.95 16.76C180.2 16.57 180.42 16.33 180.58 16.05C180.78 15.76 180.89 15.41 180.88 15.05C180.89 15.04 180.89 15.02 180.89 15C180.89 14.99 180.89 14.97 180.88 14.95C180.87 14.55 180.78 14.16 180.61 13.8C180.44 13.43 180.19 13.11 179.88 12.85L179.73 12.85C179.47 12.68 179.18 12.55 178.87 12.49C178.56 12.43 178.24 12.44 177.93 12.5C177.32 12.67 176.79 13.06 176.45 13.6C176.29 13.87 176.18 14.17 176.13 14.48C176.08 14.79 176.1 15.1 176.18 15.4Z" fill="url(#paint_radial_68_35997_0)" fill-opacity="1.000000" fill-rule="nonzero"/>
		<path id="Vector" d="M177.13 7.2L175.03 7L174.68 11.5C174.64 11.5 174.61 11.48 174.58 11.45C174.19 11.23 173.73 11.14 173.28 11.2C172.86 11.37 172.51 11.67 172.28 12.05C172.17 12.24 172.09 12.45 172.07 12.66C172.04 12.88 172.06 13.1 172.13 13.3C172.24 13.72 172.51 14.08 172.88 14.3C173.27 14.51 173.72 14.56 174.15 14.45C174.57 14.34 174.94 14.07 175.18 13.7C175.34 13.52 175.43 13.29 175.43 13.05L175.43 12.95L175.78 9.1L178.33 9.35L178.38 8.8C178.39 8.63 178.39 8.42 178.34 8.27C178.28 8.07 178.21 7.94 178.1 7.79C177.99 7.63 177.84 7.5 177.68 7.4C177.51 7.3 177.33 7.23 177.13 7.2Z" fill="#DF8A1D" fill-opacity="0.500000" fill-rule="nonzero"/>
		<path id="Vector" d="M171.83 11.45C171.72 11.65 171.64 11.86 171.62 12.09C171.59 12.31 171.61 12.54 171.68 12.75C171.79 13.19 172.06 13.57 172.45 13.8C172.84 14.01 173.29 14.06 173.72 13.95C174.14 13.84 174.51 13.57 174.75 13.2C174.91 13 174.99 12.76 175 12.5L175 12.4C174.99 12.13 174.93 11.85 174.81 11.6C174.69 11.35 174.51 11.13 174.3 10.95C174.27 10.96 174.23 10.96 174.2 10.95C173.81 10.73 173.35 10.64 172.9 10.7C172.47 10.83 172.09 11.09 171.83 11.45Z" fill="url(#paint_radial_68_35999_0)" fill-opacity="1.000000" fill-rule="nonzero"/>
		<path id="Vector" d="M177.23 6.85C177.08 6.76 176.91 6.69 176.73 6.65L174.63 6.45L174.28 10.95C174.49 11.13 174.67 11.35 174.79 11.6C174.91 11.85 174.97 12.13 174.98 12.4L175.33 8.55L177.88 8.8L177.91 8.32C177.92 8.15 177.92 7.97 177.88 7.75C177.84 7.57 177.76 7.39 177.65 7.24C177.54 7.08 177.39 6.95 177.23 6.85Z" fill="url(#paint_radial_68_36000_0)" fill-opacity="1.000000" fill-rule="nonzero"/>
		<path id="Vector" d="M175.04 21.69L175.02 20.69C175.05 20.36 175.01 20.04 174.92 19.73C174.84 19.4 174.7 19.09 174.49 18.82C174.28 18.55 174.02 18.33 173.72 18.17C173.41 18 173.07 17.9 172.71 17.87L168.99 17.62L168.44 25.85C168.42 25.8 168.39 25.76 168.35 25.72C168 25.51 167.61 25.38 167.2 25.33C166.79 25.28 166.38 25.32 165.99 25.45C165.6 25.55 165.24 25.74 164.92 25.99C164.61 26.24 164.35 26.56 164.17 26.91C163.97 27.26 163.84 27.65 163.8 28.05C163.75 28.45 163.78 28.85 163.89 29.24C164 29.63 164.19 29.99 164.44 30.31C164.69 30.63 165.01 30.9 165.36 31.1L165.4 31.1C165.75 31.29 166.14 31.42 166.54 31.47C166.94 31.51 167.34 31.48 167.73 31.37C168.12 31.27 168.49 31.08 168.81 30.83C169.13 30.58 169.39 30.26 169.59 29.9C169.78 29.53 169.91 29.13 169.97 28.72L169.96 28.5L170.4 21.41L175.04 21.69Z" fill="#D26707" fill-opacity="0.500000" fill-rule="nonzero"/>
		<g filter="url(#filter_68_36009_dd)">
			<rect id="Btn_pink" x="203.000000" y="12.765869" rx="20.000000" width="128.000000" height="40.000000" fill="#54CD00" fill-opacity="1.000000"/>
		</g>
		<rect id="Btn_pink" x="203.000000" y="12.765869" rx="20.000000" width="128.000000" height="40.000000" stroke="#CFEB71" stroke-opacity="0" stroke-width="2.000000"/>
		<rect id="progresbar_bg" x="6.000000" y="12.765869" rx="20.000000" width="128.000000" height="40.000000" fill="#000000" fill-opacity="0.110000"/>
		<rect id="progresbar_bg" x="6.000000" y="12.765869" rx="20.000000" width="128.000000" height="40.000000" fill="#8328CB" fill-opacity="1.000000"/>
		<path id="progresbar_bg" d="M26 13L26 53C14.95 53 6 44.04 6 33C6 21.95 14.95 13 26 13Z" fill="#F2C32A" fill-opacity="1.000000" fill-rule="nonzero"/>
		<g opacity="0.600000">
			<path id="СУПЕРИГРА_0" d="M31.72 36.83Q32.52 35.84 32.66 34.33L30.57 34.33Q30.4 35.62 29.78 36.18Q29.16 36.73 27.92 36.73Q27.12 36.73 26.54 36.37Q26.15 36.12 25.87 35.7Q25.16 34.67 25.16 32.72L25.16 31.65Q25.18 29.71 25.92 28.71Q26.2 28.33 26.57 28.09Q27.17 27.71 28.02 27.71Q29.2 27.71 29.81 28.29Q30.42 28.86 30.57 30.17L32.66 30.17Q32.49 28.47 31.58 27.43Q31.42 27.26 31.24 27.1Q31.08 26.96 30.91 26.83Q29.76 26.01 28.02 26.01Q26.77 26.01 25.77 26.51Q25.58 26.6 25.4 26.71Q25.09 26.91 24.81 27.15Q24.1 27.78 23.66 28.72Q23.06 30.03 23.06 31.74L23.06 32.87Q23.08 34.53 23.68 35.8Q24.12 36.72 24.82 37.33Q25.08 37.56 25.38 37.74Q25.54 37.85 25.72 37.94Q26.7 38.43 27.92 38.43Q29.82 38.43 31.02 37.51Q31.13 37.43 31.23 37.34Q31.5 37.11 31.72 36.83ZM41.31 26.17L38.89 32.49L36.07 26.17L33.78 26.17L37.91 34.97L37.48 35.99Q37.32 36.34 37.05 36.53Q36.71 36.76 36.22 36.76Q35.71 36.76 35.52 36.73L35.5 38.39L36.36 38.44Q37.46 38.44 38.2 37.92Q38.71 37.56 39.05 36.96L39.43 36.2L43.64 26.17L41.31 26.17ZM52.71 38.26L54.81 38.26L54.81 26.17L45.3 26.17L45.3 38.26L47.39 38.26L47.39 27.87L52.71 27.87L52.71 38.26ZM59.44 32.87L64.4 32.87L64.4 31.21L59.44 31.21L59.44 27.87L65.18 27.87L65.18 26.17L57.34 26.17L57.34 38.26L65.24 38.26L65.24 36.58L59.44 36.58L59.44 32.87ZM69.05 38.26L69.05 33.77L71.55 33.77Q73.65 33.77 74.82 32.78Q75.16 32.49 75.4 32.14Q75.98 31.27 75.98 30.02Q75.98 28.93 75.51 28.11Q75.23 27.62 74.79 27.23Q74.71 27.16 74.63 27.1Q73.47 26.17 71.57 26.17L66.95 26.17L66.95 38.26L69.05 38.26ZM87.32 26.17L85.22 26.17L79.92 34.79L79.92 26.17L77.82 26.17L77.82 38.26L79.92 38.26L85.22 29.65L85.22 38.26L87.32 38.26L87.32 26.17ZM91.99 27.87L97.56 27.87L97.56 26.17L89.89 26.17L89.89 38.26L91.99 38.26L91.99 27.87ZM101.41 38.26L101.41 33.77L103.91 33.77Q106.01 33.77 107.17 32.78Q107.51 32.49 107.76 32.14Q108.34 31.27 108.34 30.02Q108.34 28.93 107.87 28.11Q107.59 27.62 107.15 27.23Q107.07 27.16 106.99 27.1Q105.82 26.17 103.93 26.17L99.31 26.17L99.31 38.26L101.41 38.26ZM109.8 38.26L110.78 35.45L115.46 35.45L116.45 38.26L118.64 38.26L114.07 26.17L112.18 26.17L107.62 38.26L109.8 38.26ZM71.57 32.09L69.05 32.09L69.05 27.87L71.63 27.87Q72.55 27.88 73.12 28.33Q73.2 28.4 73.28 28.47Q73.42 28.61 73.53 28.78Q73.87 29.3 73.87 30.03Q73.87 30.86 73.47 31.36Q73.39 31.46 73.28 31.56Q72.69 32.09 71.57 32.09ZM103.93 32.09L101.41 32.09L101.41 27.87L103.99 27.87Q104.91 27.88 105.48 28.33Q105.56 28.4 105.63 28.47Q105.78 28.61 105.89 28.78Q106.23 29.3 106.23 30.03Q106.23 30.86 105.83 31.36Q105.75 31.46 105.64 31.56Q105.05 32.09 103.93 32.09ZM113.12 28.74L114.87 33.75L111.37 33.75L113.12 28.74Z" fill="#FFFFFF" fill-opacity="1.000000" fill-rule="evenodd"/>
		</g>
		<path id="3/12" d="M259.31 43.14Q260.06 42.12 260.06 40.13L260.06 38.53Q260.04 36.59 259.29 35.62Q259.11 35.39 258.89 35.21Q258.18 34.65 257.03 34.65Q255.89 34.65 255.18 35.21Q254.94 35.4 254.75 35.65Q254.01 36.65 254.01 38.64L254.01 40.24Q254.03 42.17 254.79 43.16Q254.99 43.43 255.25 43.62Q255.95 44.15 257.04 44.15Q258.15 44.15 258.85 43.61Q259.11 43.41 259.31 43.14ZM273.95 44.02L280.17 44.02L280.17 42.79L275.88 42.79L278.14 40.37Q279.02 39.41 279.41 38.65Q279.81 37.89 279.81 37.2Q279.81 36.35 279.42 35.77Q279.25 35.53 279.03 35.33Q279.01 35.31 279 35.3Q278.22 34.65 276.9 34.65Q275.97 34.65 275.26 35.03Q274.82 35.26 274.5 35.6Q274.31 35.82 274.16 36.08Q274.09 36.21 274.03 36.34Q273.77 36.92 273.77 37.6L275.32 37.6Q275.32 36.85 275.68 36.4Q275.71 36.37 275.73 36.35Q275.82 36.25 275.93 36.17Q276.31 35.89 276.89 35.89Q277.33 35.89 277.64 36.09Q277.78 36.17 277.89 36.3Q277.96 36.37 278.01 36.44Q278.26 36.82 278.26 37.36Q278.26 37.37 278.26 37.38Q278.26 37.87 277.98 38.36Q277.7 38.86 277.03 39.6L273.95 42.96L273.95 44.02ZM269.2 44.02L270.74 44.02L270.74 34.75L270.54 34.75L266.94 36.07L266.94 37.38L269.2 36.6L269.2 44.02ZM260.74 44.81L261.96 44.81L265.59 34.78L264.38 34.78L260.74 44.81ZM258.16 36.5Q258.51 37.1 258.51 38.4L258.51 40.49Q258.5 41.74 258.14 42.33Q257.99 42.58 257.77 42.72Q257.47 42.92 257.04 42.92Q256.61 42.92 256.31 42.72Q256.07 42.56 255.91 42.28Q255.54 41.65 255.54 40.35L255.54 38.26Q255.56 37.04 255.92 36.46Q256.06 36.24 256.25 36.11Q256.56 35.89 257.03 35.89Q257.49 35.89 257.81 36.11Q258.02 36.25 258.16 36.5Z" fill="#FEF458" fill-opacity="1.000000" fill-rule="evenodd"/>
		<path id="3/12" d="M259.31 43.14Q260.06 42.12 260.06 40.13L260.06 38.53Q260.04 36.59 259.29 35.62Q259.11 35.39 258.89 35.21Q258.18 34.65 257.03 34.65Q255.89 34.65 255.18 35.21Q254.94 35.4 254.75 35.65Q254.01 36.65 254.01 38.64L254.01 40.24Q254.03 42.17 254.79 43.16Q254.99 43.43 255.25 43.62Q255.95 44.15 257.04 44.15Q258.15 44.15 258.85 43.61Q259.11 43.41 259.31 43.14ZM273.95 44.02L280.17 44.02L280.17 42.79L275.88 42.79L278.14 40.37Q279.02 39.41 279.41 38.65Q279.81 37.89 279.81 37.2Q279.81 36.35 279.42 35.77Q279.25 35.53 279.03 35.33Q279.01 35.31 279 35.3Q278.22 34.65 276.9 34.65Q275.97 34.65 275.26 35.03Q274.82 35.26 274.5 35.6Q274.31 35.82 274.16 36.08Q274.09 36.21 274.03 36.34Q273.77 36.92 273.77 37.6L275.32 37.6Q275.32 36.85 275.68 36.4Q275.71 36.37 275.73 36.35Q275.82 36.25 275.93 36.17Q276.31 35.89 276.89 35.89Q277.33 35.89 277.64 36.09Q277.78 36.17 277.89 36.3Q277.96 36.37 278.01 36.44Q278.26 36.82 278.26 37.36Q278.26 37.37 278.26 37.38Q278.26 37.87 277.98 38.36Q277.7 38.86 277.03 39.6L273.95 42.96L273.95 44.02ZM269.2 44.02L270.74 44.02L270.74 34.75L270.54 34.75L266.94 36.07L266.94 37.38L269.2 36.6L269.2 44.02ZM260.74 44.81L261.96 44.81L265.59 34.78L264.38 34.78L260.74 44.81ZM258.16 36.5Q258.51 37.1 258.51 38.4L258.51 40.49Q258.5 41.74 258.14 42.33Q257.99 42.58 257.77 42.72Q257.47 42.92 257.04 42.92Q256.61 42.92 256.31 42.72Q256.07 42.56 255.91 42.28Q255.54 41.65 255.54 40.35L255.54 38.26Q255.56 37.04 255.92 36.46Q256.06 36.24 256.25 36.11Q256.56 35.89 257.03 35.89Q257.49 35.89 257.81 36.11Q258.02 36.25 258.16 36.5Z" fill="#5E208A" fill-opacity="0" fill-rule="evenodd"/>
		<path id="Собрано нот:" d="M251.22 22.33Q250.69 22.01 249.97 22.01Q249.56 22.01 249.18 22.14Q248.61 22.33 248.14 22.81Q248.29 22.03 248.71 21.59Q249.14 21.15 249.96 20.98Q250.85 20.79 251.22 20.58Q251.51 20.41 251.69 20.15Q251.73 20.09 251.76 20.03Q251.93 19.69 251.93 19.15L250.88 19.15Q250.88 19.31 250.81 19.44Q250.76 19.53 250.66 19.61Q250.45 19.78 249.71 19.93Q248.94 20.09 248.39 20.52Q248 20.84 247.72 21.3Q247.05 22.39 247.05 24.27L247.05 24.65Q247.05 25.9 247.66 26.67Q247.72 26.75 247.79 26.82Q248.04 27.09 248.35 27.27Q248.94 27.61 249.72 27.61Q250.61 27.61 251.24 27.2Q251.47 27.05 251.67 26.83Q251.81 26.69 251.92 26.52Q252.39 25.82 252.39 24.8L252.39 24.73Q252.39 23.57 251.82 22.86Q251.77 22.8 251.73 22.74Q251.5 22.49 251.22 22.33ZM239.28 26.58Q239.79 25.94 239.88 24.96L238.53 24.96Q238.42 25.79 238.02 26.15Q237.62 26.51 236.82 26.51Q236.3 26.51 235.92 26.28Q235.67 26.12 235.49 25.85Q235.03 25.18 235.03 23.91L235.03 23.22Q235.04 21.97 235.52 21.32Q235.7 21.08 235.94 20.92Q236.33 20.67 236.88 20.67Q237.64 20.67 238.04 21.05Q238.43 21.42 238.53 22.26L239.88 22.26Q239.77 21.17 239.18 20.5Q239.08 20.38 238.96 20.28Q238.86 20.19 238.75 20.11Q238.01 19.57 236.88 19.57Q236.07 19.57 235.42 19.9Q235.3 19.96 235.19 20.03Q234.98 20.16 234.81 20.31Q234.34 20.72 234.06 21.33Q233.67 22.17 233.67 23.28L233.67 24.01Q233.68 25.09 234.07 25.91Q234.35 26.5 234.81 26.9Q234.98 27.05 235.17 27.17Q235.28 27.23 235.39 27.29Q236.02 27.61 236.82 27.61Q238.04 27.61 238.82 27.02Q238.89 26.96 238.96 26.91Q239.13 26.76 239.28 26.58ZM299.92 21.72Q299.73 21.57 299.41 21.57Q299.11 21.57 298.92 21.71Q298.88 21.74 298.85 21.77Q298.78 21.85 298.74 21.93Q298.65 22.09 298.65 22.29Q298.65 22.49 298.74 22.65Q298.78 22.73 298.86 22.8Q298.89 22.83 298.93 22.86Q299.12 23 299.41 23Q299.74 23 299.93 22.84Q299.95 22.82 299.97 22.8Q300.05 22.73 300.09 22.64Q300.17 22.49 300.17 22.29Q300.17 22.09 300.09 21.93Q300.04 21.85 299.97 21.77Q299.95 21.74 299.92 21.72ZM241.06 23Q240.73 23.69 240.73 24.54L240.73 24.61Q240.73 25.81 241.3 26.59Q241.38 26.69 241.46 26.79Q241.71 27.07 242.02 27.25Q242.62 27.61 243.43 27.61Q244.15 27.61 244.71 27.32Q244.78 27.28 244.85 27.24Q245.07 27.11 245.25 26.94Q245.58 26.63 245.8 26.19Q246.13 25.51 246.13 24.65L246.12 24.35Q246.07 23.31 245.56 22.61Q245.46 22.47 245.33 22.34Q245.09 22.09 244.81 21.93Q244.22 21.58 243.42 21.58Q242.74 21.58 242.19 21.85Q242.1 21.9 242.01 21.95Q241.84 22.06 241.68 22.19Q241.3 22.52 241.06 23ZM257.79 26.81Q258.4 26 258.4 24.65L258.4 24.57Q258.4 23.17 257.8 22.37Q257.54 22.04 257.21 21.85Q256.75 21.58 256.13 21.58Q255.52 21.58 255.06 21.85Q254.78 22.02 254.57 22.28L254.51 21.69L253.31 21.69L253.31 29.74L254.62 29.74L254.62 26.98Q254.8 27.18 255.03 27.32Q255.5 27.61 256.15 27.61Q256.69 27.61 257.12 27.39Q257.5 27.19 257.79 26.81ZM262.83 26.96Q262.89 27.33 262.98 27.5L264.31 27.5L264.31 27.41Q264.09 26.94 264.09 26.16L264.09 23.54Q264.08 22.87 263.76 22.41Q263.64 22.24 263.47 22.09Q263.45 22.08 263.43 22.07Q262.83 21.58 261.84 21.58Q261.17 21.58 260.62 21.82Q260.09 22.05 259.78 22.45Q259.77 22.46 259.76 22.47Q259.53 22.77 259.47 23.1Q259.44 23.23 259.44 23.37L260.75 23.37Q260.75 23.22 260.8 23.09Q260.87 22.92 261.03 22.8Q261.05 22.79 261.06 22.78Q261.34 22.58 261.76 22.58Q262.25 22.58 262.51 22.82Q262.52 22.83 262.53 22.85Q262.57 22.89 262.6 22.94Q262.78 23.19 262.78 23.57L262.78 23.95L261.98 23.95Q260.7 23.95 260.01 24.45Q259.74 24.64 259.57 24.91Q259.32 25.31 259.32 25.87Q259.32 26.23 259.45 26.53Q259.59 26.85 259.87 27.11Q259.98 27.21 260.11 27.29Q260.6 27.61 261.3 27.61Q261.76 27.61 262.14 27.44Q262.52 27.28 262.83 26.96ZM271.86 23Q271.52 23.69 271.52 24.54L271.52 24.61Q271.52 25.81 272.1 26.59Q272.18 26.69 272.26 26.79Q272.51 27.07 272.82 27.25Q273.42 27.61 274.23 27.61Q274.94 27.61 275.51 27.32Q275.58 27.28 275.65 27.24Q275.87 27.11 276.05 26.94Q276.38 26.63 276.6 26.19Q276.93 25.51 276.93 24.65L276.92 24.35Q276.87 23.31 276.36 22.61Q276.25 22.47 276.13 22.34Q275.89 22.09 275.61 21.93Q275.01 21.58 274.22 21.58Q273.54 21.58 272.99 21.85Q272.9 21.9 272.81 21.95Q272.63 22.06 272.48 22.19Q272.1 22.52 271.86 23ZM287.17 23Q286.84 23.69 286.84 24.54L286.84 24.61Q286.84 25.81 287.41 26.59Q287.49 26.69 287.57 26.79Q287.82 27.07 288.13 27.25Q288.73 27.61 289.54 27.61Q290.26 27.61 290.82 27.32Q290.89 27.28 290.96 27.24Q291.18 27.11 291.36 26.94Q291.7 26.63 291.91 26.19Q292.24 25.51 292.24 24.65L292.23 24.35Q292.19 23.31 291.67 22.61Q291.57 22.47 291.44 22.34Q291.21 22.09 290.92 21.93Q290.33 21.58 289.53 21.58Q288.85 21.58 288.3 21.85Q288.21 21.9 288.13 21.95Q287.95 22.06 287.79 22.19Q287.41 22.52 287.17 23ZM269.07 27.5L270.38 27.5L270.38 21.69L269.07 21.69L269.07 24.11L266.81 24.11L266.81 21.69L265.51 21.69L265.51 27.5L266.81 27.5L266.81 25.15L269.07 25.15L269.07 27.5ZM284.39 27.5L285.69 27.5L285.69 21.69L284.39 21.69L284.39 24.11L282.13 24.11L282.13 21.69L280.82 21.69L280.82 27.5L282.13 27.5L282.13 25.15L284.39 25.15L284.39 27.5ZM295.87 22.73L297.76 22.73L297.76 21.69L292.7 21.69L292.7 22.73L294.57 22.73L294.57 27.5L295.87 27.5L295.87 22.73ZM242.4 26.06Q242.03 25.55 242.03 24.65Q242.03 23.64 242.41 23.14Q242.59 22.89 242.83 22.76Q243.09 22.63 243.42 22.63Q243.76 22.63 244.02 22.77Q244.27 22.9 244.45 23.14Q244.83 23.66 244.83 24.54Q244.83 25.54 244.46 26.05Q244.3 26.28 244.07 26.41Q243.8 26.57 243.43 26.57Q243.06 26.57 242.78 26.41Q242.56 26.28 242.4 26.06ZM273.2 26.06Q272.83 25.55 272.83 24.65Q272.83 23.64 273.2 23.14Q273.39 22.89 273.63 22.76Q273.89 22.63 274.22 22.63Q274.56 22.63 274.82 22.77Q275.07 22.9 275.25 23.14Q275.63 23.66 275.63 24.54Q275.63 25.54 275.26 26.05Q275.09 26.28 274.87 26.41Q274.59 26.57 274.23 26.57Q273.86 26.57 273.58 26.41Q273.36 26.28 273.2 26.06ZM288.51 26.06Q288.14 25.55 288.14 24.65Q288.14 23.64 288.52 23.14Q288.7 22.89 288.94 22.76Q289.2 22.63 289.53 22.63Q289.87 22.63 290.13 22.77Q290.38 22.9 290.56 23.14Q290.94 23.66 290.94 24.54Q290.94 25.54 290.57 26.05Q290.41 26.28 290.18 26.41Q289.91 26.57 289.54 26.57Q289.17 26.57 288.89 26.41Q288.67 26.28 288.51 26.06ZM256.76 23.16Q257.1 23.67 257.1 24.54Q257.1 25.56 256.75 26.06Q256.58 26.31 256.35 26.43Q256.1 26.57 255.78 26.57Q255.33 26.57 255.03 26.36Q254.77 26.19 254.62 25.89L254.62 23.31Q254.77 23.02 255.01 22.86Q255.31 22.65 255.76 22.65Q256.12 22.65 256.38 22.81Q256.6 22.93 256.76 23.16ZM248.98 23.25Q249.28 23.06 249.71 23.06Q250.18 23.06 250.49 23.28Q250.62 23.37 250.73 23.5Q251.09 23.93 251.09 24.69Q251.09 25.63 250.73 26.1Q250.59 26.28 250.42 26.39Q250.13 26.57 249.72 26.57Q249.3 26.57 249.01 26.38Q248.84 26.27 248.71 26.1Q248.36 25.64 248.36 24.8Q248.36 23.91 248.72 23.49Q248.83 23.35 248.98 23.25ZM261.9 26.52Q261.73 26.56 261.54 26.56Q261.16 26.56 260.92 26.38Q260.9 26.36 260.88 26.34Q260.79 26.26 260.74 26.17Q260.63 25.99 260.63 25.74Q260.63 25.49 260.73 25.3Q260.82 25.14 260.99 25.02Q261.35 24.77 262.08 24.77L262.78 24.77L262.78 25.87Q262.74 25.95 262.68 26.02Q262.52 26.23 262.27 26.37Q262.09 26.47 261.9 26.52ZM299.92 26.28Q299.73 26.13 299.41 26.13Q299.11 26.13 298.92 26.27Q298.88 26.3 298.85 26.33Q298.78 26.41 298.74 26.49Q298.65 26.65 298.65 26.85Q298.65 27.05 298.74 27.21Q298.78 27.29 298.86 27.36Q298.89 27.39 298.93 27.42Q299.12 27.56 299.41 27.56Q299.74 27.56 299.93 27.4Q299.95 27.38 299.97 27.36Q300.05 27.29 300.09 27.2Q300.17 27.05 300.17 26.85Q300.17 26.65 300.09 26.49Q300.04 26.41 299.97 26.33Q299.95 26.3 299.92 26.28Z" fill="#FFFFFF" fill-opacity="1.000000" fill-rule="evenodd"/>
		<path id="Собрано нот:" d="M251.22 22.33Q250.69 22.01 249.97 22.01Q249.56 22.01 249.18 22.14Q248.61 22.33 248.14 22.81Q248.29 22.03 248.71 21.59Q249.14 21.15 249.96 20.98Q250.85 20.79 251.22 20.58Q251.51 20.41 251.69 20.15Q251.73 20.09 251.76 20.03Q251.93 19.69 251.93 19.15L250.88 19.15Q250.88 19.31 250.81 19.44Q250.76 19.53 250.66 19.61Q250.45 19.78 249.71 19.93Q248.94 20.09 248.39 20.52Q248 20.84 247.72 21.3Q247.05 22.39 247.05 24.27L247.05 24.65Q247.05 25.9 247.66 26.67Q247.72 26.75 247.79 26.82Q248.04 27.09 248.35 27.27Q248.94 27.61 249.72 27.61Q250.61 27.61 251.24 27.2Q251.47 27.05 251.67 26.83Q251.81 26.69 251.92 26.52Q252.39 25.82 252.39 24.8L252.39 24.73Q252.39 23.57 251.82 22.86Q251.77 22.8 251.73 22.74Q251.5 22.49 251.22 22.33ZM239.28 26.58Q239.79 25.94 239.88 24.96L238.53 24.96Q238.42 25.79 238.02 26.15Q237.62 26.51 236.82 26.51Q236.3 26.51 235.92 26.28Q235.67 26.12 235.49 25.85Q235.03 25.18 235.03 23.91L235.03 23.22Q235.04 21.97 235.52 21.32Q235.7 21.08 235.94 20.92Q236.33 20.67 236.88 20.67Q237.64 20.67 238.04 21.05Q238.43 21.42 238.53 22.26L239.88 22.26Q239.77 21.17 239.18 20.5Q239.08 20.38 238.96 20.28Q238.86 20.19 238.75 20.11Q238.01 19.57 236.88 19.57Q236.07 19.57 235.42 19.9Q235.3 19.96 235.19 20.03Q234.98 20.16 234.81 20.31Q234.34 20.72 234.06 21.33Q233.67 22.17 233.67 23.28L233.67 24.01Q233.68 25.09 234.07 25.91Q234.35 26.5 234.81 26.9Q234.98 27.05 235.17 27.17Q235.28 27.23 235.39 27.29Q236.02 27.61 236.82 27.61Q238.04 27.61 238.82 27.02Q238.89 26.96 238.96 26.91Q239.13 26.76 239.28 26.58ZM299.92 21.72Q299.73 21.57 299.41 21.57Q299.11 21.57 298.92 21.71Q298.88 21.74 298.85 21.77Q298.78 21.85 298.74 21.93Q298.65 22.09 298.65 22.29Q298.65 22.49 298.74 22.65Q298.78 22.73 298.86 22.8Q298.89 22.83 298.93 22.86Q299.12 23 299.41 23Q299.74 23 299.93 22.84Q299.95 22.82 299.97 22.8Q300.05 22.73 300.09 22.64Q300.17 22.49 300.17 22.29Q300.17 22.09 300.09 21.93Q300.04 21.85 299.97 21.77Q299.95 21.74 299.92 21.72ZM241.06 23Q240.73 23.69 240.73 24.54L240.73 24.61Q240.73 25.81 241.3 26.59Q241.38 26.69 241.46 26.79Q241.71 27.07 242.02 27.25Q242.62 27.61 243.43 27.61Q244.15 27.61 244.71 27.32Q244.78 27.28 244.85 27.24Q245.07 27.11 245.25 26.94Q245.58 26.63 245.8 26.19Q246.13 25.51 246.13 24.65L246.12 24.35Q246.07 23.31 245.56 22.61Q245.46 22.47 245.33 22.34Q245.09 22.09 244.81 21.93Q244.22 21.58 243.42 21.58Q242.74 21.58 242.19 21.85Q242.1 21.9 242.01 21.95Q241.84 22.06 241.68 22.19Q241.3 22.52 241.06 23ZM257.79 26.81Q258.4 26 258.4 24.65L258.4 24.57Q258.4 23.17 257.8 22.37Q257.54 22.04 257.21 21.85Q256.75 21.58 256.13 21.58Q255.52 21.58 255.06 21.85Q254.78 22.02 254.57 22.28L254.51 21.69L253.31 21.69L253.31 29.74L254.62 29.74L254.62 26.98Q254.8 27.18 255.03 27.32Q255.5 27.61 256.15 27.61Q256.69 27.61 257.12 27.39Q257.5 27.19 257.79 26.81ZM262.83 26.96Q262.89 27.33 262.98 27.5L264.31 27.5L264.31 27.41Q264.09 26.94 264.09 26.16L264.09 23.54Q264.08 22.87 263.76 22.41Q263.64 22.24 263.47 22.09Q263.45 22.08 263.43 22.07Q262.83 21.58 261.84 21.58Q261.17 21.58 260.62 21.82Q260.09 22.05 259.78 22.45Q259.77 22.46 259.76 22.47Q259.53 22.77 259.47 23.1Q259.44 23.23 259.44 23.37L260.75 23.37Q260.75 23.22 260.8 23.09Q260.87 22.92 261.03 22.8Q261.05 22.79 261.06 22.78Q261.34 22.58 261.76 22.58Q262.25 22.58 262.51 22.82Q262.52 22.83 262.53 22.85Q262.57 22.89 262.6 22.94Q262.78 23.19 262.78 23.57L262.78 23.95L261.98 23.95Q260.7 23.95 260.01 24.45Q259.74 24.64 259.57 24.91Q259.32 25.31 259.32 25.87Q259.32 26.23 259.45 26.53Q259.59 26.85 259.87 27.11Q259.98 27.21 260.11 27.29Q260.6 27.61 261.3 27.61Q261.76 27.61 262.14 27.44Q262.52 27.28 262.83 26.96ZM271.86 23Q271.52 23.69 271.52 24.54L271.52 24.61Q271.52 25.81 272.1 26.59Q272.18 26.69 272.26 26.79Q272.51 27.07 272.82 27.25Q273.42 27.61 274.23 27.61Q274.94 27.61 275.51 27.32Q275.58 27.28 275.65 27.24Q275.87 27.11 276.05 26.94Q276.38 26.63 276.6 26.19Q276.93 25.51 276.93 24.65L276.92 24.35Q276.87 23.31 276.36 22.61Q276.25 22.47 276.13 22.34Q275.89 22.09 275.61 21.93Q275.01 21.58 274.22 21.58Q273.54 21.58 272.99 21.85Q272.9 21.9 272.81 21.95Q272.63 22.06 272.48 22.19Q272.1 22.52 271.86 23ZM287.17 23Q286.84 23.69 286.84 24.54L286.84 24.61Q286.84 25.81 287.41 26.59Q287.49 26.69 287.57 26.79Q287.82 27.07 288.13 27.25Q288.73 27.61 289.54 27.61Q290.26 27.61 290.82 27.32Q290.89 27.28 290.96 27.24Q291.18 27.11 291.36 26.94Q291.7 26.63 291.91 26.19Q292.24 25.51 292.24 24.65L292.23 24.35Q292.19 23.31 291.67 22.61Q291.57 22.47 291.44 22.34Q291.21 22.09 290.92 21.93Q290.33 21.58 289.53 21.58Q288.85 21.58 288.3 21.85Q288.21 21.9 288.13 21.95Q287.95 22.06 287.79 22.19Q287.41 22.52 287.17 23ZM269.07 27.5L270.38 27.5L270.38 21.69L269.07 21.69L269.07 24.11L266.81 24.11L266.81 21.69L265.51 21.69L265.51 27.5L266.81 27.5L266.81 25.15L269.07 25.15L269.07 27.5ZM284.39 27.5L285.69 27.5L285.69 21.69L284.39 21.69L284.39 24.11L282.13 24.11L282.13 21.69L280.82 21.69L280.82 27.5L282.13 27.5L282.13 25.15L284.39 25.15L284.39 27.5ZM295.87 22.73L297.76 22.73L297.76 21.69L292.7 21.69L292.7 22.73L294.57 22.73L294.57 27.5L295.87 27.5L295.87 22.73ZM242.4 26.06Q242.03 25.55 242.03 24.65Q242.03 23.64 242.41 23.14Q242.59 22.89 242.83 22.76Q243.09 22.63 243.42 22.63Q243.76 22.63 244.02 22.77Q244.27 22.9 244.45 23.14Q244.83 23.66 244.83 24.54Q244.83 25.54 244.46 26.05Q244.3 26.28 244.07 26.41Q243.8 26.57 243.43 26.57Q243.06 26.57 242.78 26.41Q242.56 26.28 242.4 26.06ZM273.2 26.06Q272.83 25.55 272.83 24.65Q272.83 23.64 273.2 23.14Q273.39 22.89 273.63 22.76Q273.89 22.63 274.22 22.63Q274.56 22.63 274.82 22.77Q275.07 22.9 275.25 23.14Q275.63 23.66 275.63 24.54Q275.63 25.54 275.26 26.05Q275.09 26.28 274.87 26.41Q274.59 26.57 274.23 26.57Q273.86 26.57 273.58 26.41Q273.36 26.28 273.2 26.06ZM288.51 26.06Q288.14 25.55 288.14 24.65Q288.14 23.64 288.52 23.14Q288.7 22.89 288.94 22.76Q289.2 22.63 289.53 22.63Q289.87 22.63 290.13 22.77Q290.38 22.9 290.56 23.14Q290.94 23.66 290.94 24.54Q290.94 25.54 290.57 26.05Q290.41 26.28 290.18 26.41Q289.91 26.57 289.54 26.57Q289.17 26.57 288.89 26.41Q288.67 26.28 288.51 26.06ZM256.76 23.16Q257.1 23.67 257.1 24.54Q257.1 25.56 256.75 26.06Q256.58 26.31 256.35 26.43Q256.1 26.57 255.78 26.57Q255.33 26.57 255.03 26.36Q254.77 26.19 254.62 25.89L254.62 23.31Q254.77 23.02 255.01 22.86Q255.31 22.65 255.76 22.65Q256.12 22.65 256.38 22.81Q256.6 22.93 256.76 23.16ZM248.98 23.25Q249.28 23.06 249.71 23.06Q250.18 23.06 250.49 23.28Q250.62 23.37 250.73 23.5Q251.09 23.93 251.09 24.69Q251.09 25.63 250.73 26.1Q250.59 26.28 250.42 26.39Q250.13 26.57 249.72 26.57Q249.3 26.57 249.01 26.38Q248.84 26.27 248.71 26.1Q248.36 25.64 248.36 24.8Q248.36 23.91 248.72 23.49Q248.83 23.35 248.98 23.25ZM261.9 26.52Q261.73 26.56 261.54 26.56Q261.16 26.56 260.92 26.38Q260.9 26.36 260.88 26.34Q260.79 26.26 260.74 26.17Q260.63 25.99 260.63 25.74Q260.63 25.49 260.73 25.3Q260.82 25.14 260.99 25.02Q261.35 24.77 262.08 24.77L262.78 24.77L262.78 25.87Q262.74 25.95 262.68 26.02Q262.52 26.23 262.27 26.37Q262.09 26.47 261.9 26.52ZM299.92 26.28Q299.73 26.13 299.41 26.13Q299.11 26.13 298.92 26.27Q298.88 26.3 298.85 26.33Q298.78 26.41 298.74 26.49Q298.65 26.65 298.65 26.85Q298.65 27.05 298.74 27.21Q298.78 27.29 298.86 27.36Q298.89 27.39 298.93 27.42Q299.12 27.56 299.41 27.56Q299.74 27.56 299.93 27.4Q299.95 27.38 299.97 27.36Q300.05 27.29 300.09 27.2Q300.17 27.05 300.17 26.85Q300.17 26.65 300.09 26.49Q300.04 26.41 299.97 26.33Q299.95 26.3 299.92 26.28Z" fill="#5E208A" fill-opacity="0" fill-rule="evenodd"/>
	</g>
</svg>
