<svg xmlns="http://www.w3.org/2000/svg" width="18" height="16" fill="none"><path d="M1 15l-.93-.37a1 1 0 001.126 1.35L1 15zm4.707-.936l.474-.881-.317-.17-.352.07.195.981zm-3.082-3.147l.93.37.163-.414-.196-.399-.897.443zM16 8c0 3.246-2.853 6-6.53 6v2C14.11 16 18 12.486 18 8h-2zM2.94 8c0-3.246 2.855-6 6.53-6V0C4.832 0 .942 3.514.942 8h2zm6.53-6C13.147 2 16 4.754 16 8h2c0-4.486-3.888-8-8.53-8v2zm0 12a6.94 6.94 0 01-3.29-.817l-.948 1.761A8.897 8.897 0 009.47 16v-2zm-8.275 1.98l4.706-.936-.39-1.961-4.706.936.39 1.962v-.001zm2.326-5.506A5.6 5.6 0 012.942 8H.94c0 1.2.282 2.338.786 3.36l1.795-.886zm-1.826.073L.07 14.631l1.858.738 1.624-4.083-1.858-.739zM6 9a1 1 0 100-2 1 1 0 000 2zm3.5 0a1 1 0 100-2 1 1 0 000 2zM13 9a1 1 0 100-2 1 1 0 000 2z" fill="#E4136D"/></svg>