<svg width="25.000000" height="25.000000" viewBox="0 0 25 25" fill="none" xmlns="http://www.w3.org/2000/svg" xmlns:xlink="http://www.w3.org/1999/xlink">
	<desc>
			Created with Pixso.
	</desc>
	<defs/>
	<path id="Vector" d="M12.5 23.5C18.57 23.5 23.5 18.57 23.5 12.5C23.5 6.42 18.57 1.5 12.5 1.5C6.42 1.5 1.5 6.42 1.5 12.5C1.5 18.57 6.42 23.5 12.5 23.5ZM12.5 25C19.4 25 25 19.4 25 12.5C25 5.59 19.4 0 12.5 0C5.59 0 0 5.59 0 12.5C0 19.4 5.59 25 12.5 25Z" fill="#FFFFFF" fill-opacity="1.000000" fill-rule="evenodd"/>
	<path id="Vector" d="M9 12.5C9 13.32 8.32 14 7.5 14C6.67 14 6 13.32 6 12.5C6 11.67 6.67 11 7.5 11C8.32 11 9 11.67 9 12.5Z" fill="#FFFFFF" fill-opacity="1.000000" fill-rule="nonzero"/>
	<path id="Vector" d="M14 12.5C14 13.32 13.32 14 12.5 14C11.67 14 11 13.32 11 12.5C11 11.67 11.67 11 12.5 11C13.32 11 14 11.67 14 12.5Z" fill="#FFFFFF" fill-opacity="1.000000" fill-rule="nonzero"/>
	<path id="Vector" d="M19 12.5C19 13.32 18.32 14 17.5 14C16.67 14 16 13.32 16 12.5C16 11.67 16.67 11 17.5 11C18.32 11 19 11.67 19 12.5Z" fill="#FFFFFF" fill-opacity="1.000000" fill-rule="nonzero"/>
</svg>
