<svg width="65.027222" height="29.000000" viewBox="0 0 65.0272 29" fill="none" xmlns="http://www.w3.org/2000/svg" xmlns:xlink="http://www.w3.org/1999/xlink">
	<desc>
			Created with Pixso.
	</desc>
	<defs/>
	<path id="path" d="M63.15 2.22L26.54 2.22C25.4 2.35 24.77 3.05 24.66 4.33L24.66 25.54C24.77 26.82 25.39 27.52 26.53 27.65L63.16 27.65C64.29 27.52 64.91 26.82 65.02 25.54L65.02 4.33C64.91 3.05 64.29 2.35 63.15 2.22Z" fill="#EA2D43" fill-opacity="1.000000" fill-rule="evenodd"/>
	<path id="in" d="M5.86 6.4C5.86 7.58 4.82 8.54 3.54 8.54C2.26 8.54 1.22 7.58 1.22 6.4C1.22 5.21 2.26 4.25 3.54 4.25C4.82 4.25 5.86 5.21 5.86 6.4ZM14.89 13.55C13.72 13.55 12.99 14.33 12.99 15.63L12.99 23L8.28 23L8.28 9.91L12.75 9.91L12.75 12.4L12.88 12.4C13.46 10.74 14.98 9.74 16.91 9.74C19.68 9.74 21.48 11.8 21.47 14.65L21.47 23L16.77 23L16.77 15.63C16.78 14.33 16.08 13.55 14.89 13.55ZM5.9 23L1.19 23L1.19 9.91L5.9 9.91L5.9 23Z" fill="#FFFFFF" fill-opacity="1.000000" fill-rule="evenodd"/>
	<path id="ero" d="M44.89 23L41.81 23L41.81 9.91L44.8 9.91L44.8 12.08L44.93 12.08C45.41 10.57 46.66 9.72 48.16 9.72C48.5 9.72 48.99 9.75 49.27 9.8L49.27 12.64C49.01 12.55 48.36 12.46 47.84 12.46C46.14 12.46 44.89 13.64 44.89 15.3L44.89 23ZM39.07 19.49C38.52 21.76 36.42 23.25 33.38 23.25C29.43 23.25 27.02 20.63 27.02 16.53C27.02 12.49 29.46 9.74 33.21 9.74C36.44 9.74 39.2 11.75 39.2 16.34L39.2 17.29L30.08 17.29C30.1 19.53 31.43 20.84 33.42 20.84C34.75 20.84 35.77 20.27 36.19 19.16L39.07 19.49ZM62.76 16.5C62.76 20.55 60.33 23.25 56.49 23.25C52.66 23.25 50.22 20.55 50.22 16.5C50.22 12.44 52.66 9.74 56.49 9.74C60.33 9.74 62.76 12.44 62.76 16.5ZM33.25 12.14C31.41 12.14 30.18 13.54 30.08 15.21L36.24 15.21C36.22 13.43 35.03 12.14 33.25 12.14ZM53.34 16.49C53.34 18.89 54.39 20.78 56.51 20.78C58.59 20.78 59.64 18.89 59.64 16.49C59.64 14.09 58.59 12.18 56.51 12.18C54.39 12.18 53.34 14.09 53.34 16.49Z" fill="#000000" fill-opacity="1.000000" fill-rule="evenodd"/>
</svg>
