<svg width="146" height="38" viewBox="0 0 146 38" fill="none" xmlns="http://www.w3.org/2000/svg">
<path d="M3.84019 31.0001C3.27486 31.0001 2.99219 30.7174 2.99219 30.1521V11.2241C2.99219 10.6588 3.27486 10.3761 3.84019 10.3761H15.8242C16.3895 10.3761 16.6722 10.6588 16.6722 11.2241C16.6722 11.7788 16.3895 12.0561 15.8242 12.0561H4.67219V19.7201H12.0482C12.6135 19.7201 12.8962 19.9974 12.8962 20.5521C12.8962 21.1174 12.6135 21.4001 12.0482 21.4001H4.67219V29.3201H15.8242C16.3895 29.3201 16.6722 29.5974 16.6722 30.1521C16.6722 30.7174 16.3895 31.0001 15.8242 31.0001H3.84019ZM34.8817 31.0321C34.647 31.1708 34.4337 31.2188 34.2417 31.1761C34.0497 31.1334 33.879 31.0001 33.7297 30.7761L28.4817 22.4241H22.6097V30.1521C22.6097 30.7174 22.3324 31.0001 21.7777 31.0001C21.2124 31.0001 20.9297 30.7174 20.9297 30.1521V11.2241C20.9297 10.6588 21.2124 10.3761 21.7777 10.3761H29.2657C31.0897 10.3761 32.4657 10.8454 33.3937 11.7841C34.3324 12.7228 34.8017 14.1041 34.8017 15.9281V16.8881C34.8017 18.4988 34.4337 19.7628 33.6977 20.6801C32.9617 21.5974 31.8737 22.1574 30.4337 22.3601L35.1537 29.8801C35.4524 30.3708 35.3617 30.7548 34.8817 31.0321ZM22.6097 20.7441H29.2657C30.6097 20.7441 31.5857 20.4401 32.1937 19.8321C32.8124 19.2134 33.1217 18.2321 33.1217 16.8881V15.9281C33.1217 14.5734 32.8124 13.5921 32.1937 12.9841C31.5857 12.3654 30.6097 12.0561 29.2657 12.0561H22.6097V20.7441ZM46.1385 31.0001C43.8238 31.0001 42.1331 30.4668 41.0665 29.4001C39.9998 28.3334 39.4665 26.6428 39.4665 24.3281V17.0321C39.4665 14.6961 39.9998 13.0001 41.0665 11.9441C42.1331 10.8774 43.8131 10.3548 46.1065 10.3761H49.9785C52.2931 10.3761 53.9785 10.9094 55.0345 11.9761C56.1011 13.0428 56.6345 14.7334 56.6345 17.0481V24.3281C56.6345 26.6428 56.1011 28.3334 55.0345 29.4001C53.9785 30.4668 52.2931 31.0001 49.9785 31.0001H46.1385ZM46.1385 29.3201H49.9785C51.2051 29.3201 52.1811 29.1601 52.9064 28.8401C53.6318 28.5201 54.1545 27.9974 54.4745 27.2721C54.7945 26.5468 54.9545 25.5654 54.9545 24.3281V17.0481C54.9545 15.8214 54.7945 14.8454 54.4745 14.1201C54.1545 13.3948 53.6318 12.8721 52.9064 12.5521C52.1811 12.2214 51.2051 12.0561 49.9785 12.0561H46.1065C44.8798 12.0454 43.9038 12.2001 43.1785 12.5201C42.4638 12.8294 41.9465 13.3521 41.6265 14.0881C41.3065 14.8134 41.1465 15.7948 41.1465 17.0321V24.3281C41.1465 25.5654 41.3065 26.5468 41.6265 27.2721C41.9465 27.9974 42.4691 28.5201 43.1945 28.8401C43.9198 29.1601 44.9011 29.3201 46.1385 29.3201Z" fill="#E1351F"/>
<path d="M63.0277 30.9999C62.4624 30.9999 62.1797 30.7172 62.1797 30.1519V11.2239C62.1797 10.6586 62.4624 10.3759 63.0277 10.3759H70.5157C72.3397 10.3759 73.7157 10.8452 74.6437 11.7839C75.5824 12.7226 76.0517 14.1039 76.0517 15.9279V16.8879C76.0517 18.7012 75.5824 20.0772 74.6437 21.0159C73.7157 21.9546 72.3397 22.4239 70.5157 22.4239H63.8597V30.1519C63.8597 30.7172 63.5824 30.9999 63.0277 30.9999ZM63.8597 20.7439H70.5157C71.8597 20.7439 72.8357 20.4399 73.4437 19.8319C74.0624 19.2132 74.3717 18.2319 74.3717 16.8879V15.9279C74.3717 14.5732 74.0624 13.5919 73.4437 12.9839C72.8357 12.3652 71.8597 12.0559 70.5157 12.0559H63.8597V20.7439ZM86.3572 30.9999C84.0425 30.9999 82.3519 30.4666 81.2852 29.3999C80.2185 28.3332 79.6852 26.6426 79.6852 24.3279V17.0319C79.6852 14.6959 80.2185 12.9999 81.2852 11.9439C82.3519 10.8772 84.0319 10.3546 86.3252 10.3759H90.1972C92.5119 10.3759 94.1972 10.9092 95.2532 11.9759C96.3199 13.0426 96.8532 14.7332 96.8532 17.0479V24.3279C96.8532 26.6426 96.3199 28.3332 95.2532 29.3999C94.1972 30.4666 92.5119 30.9999 90.1972 30.9999H86.3572ZM86.3572 29.3199H90.1972C91.4239 29.3199 92.3999 29.1599 93.1252 28.8399C93.8505 28.5199 94.3732 27.9972 94.6932 27.2719C95.0132 26.5466 95.1732 25.5652 95.1732 24.3279V17.0479C95.1732 15.8212 95.0132 14.8452 94.6932 14.1199C94.3732 13.3946 93.8505 12.8719 93.1252 12.5519C92.3999 12.2212 91.4239 12.0559 90.1972 12.0559H86.3252C85.0985 12.0452 84.1225 12.1999 83.3972 12.5199C82.6825 12.8292 82.1652 13.3519 81.8452 14.0879C81.5252 14.8132 81.3652 15.7946 81.3652 17.0319V24.3279C81.3652 25.5652 81.5252 26.5466 81.8452 27.2719C82.1652 27.9972 82.6879 28.5199 83.4132 28.8399C84.1385 29.1599 85.1199 29.3199 86.3572 29.3199ZM103.246 30.9999C102.98 30.9999 102.772 30.9252 102.622 30.7759C102.473 30.6266 102.398 30.4186 102.398 30.1519V11.2079C102.398 10.9412 102.473 10.7332 102.622 10.5839C102.772 10.4346 102.98 10.3599 103.246 10.3599C103.502 10.3599 103.705 10.4346 103.854 10.5839C104.004 10.7332 104.078 10.9412 104.078 11.2079V30.1519C104.078 30.4186 104.004 30.6266 103.854 30.7759C103.705 30.9252 103.502 30.9999 103.246 30.9999ZM115.351 30.9679C113.441 30.9679 112.023 30.5466 111.095 29.7039C110.177 28.8506 109.687 27.5119 109.623 25.6879C109.612 25.4319 109.681 25.2292 109.831 25.0799C109.991 24.9199 110.199 24.8399 110.455 24.8399C110.711 24.8399 110.913 24.9146 111.062 25.0639C111.212 25.2132 111.297 25.4159 111.319 25.6719C111.361 27.0159 111.681 27.9546 112.279 28.4879C112.876 29.0212 113.9 29.2879 115.351 29.2879H119.959C121.473 29.2879 122.524 28.9946 123.111 28.4079C123.708 27.8106 124.007 26.7652 124.007 25.2719C124.007 23.7572 123.708 22.7066 123.111 22.1199C122.524 21.5226 121.473 21.2239 119.959 21.2239H115.575C113.697 21.2239 112.321 20.7866 111.447 19.9119C110.572 19.0372 110.135 17.6666 110.135 15.7999C110.135 13.9332 110.567 12.5626 111.431 11.6879C112.305 10.8132 113.676 10.3759 115.543 10.3759H120.023C121.815 10.3759 123.143 10.7759 124.007 11.5759C124.881 12.3759 125.351 13.6346 125.415 15.3519C125.436 15.6079 125.367 15.8159 125.207 15.9759C125.057 16.1252 124.849 16.1999 124.583 16.1999C124.337 16.1999 124.14 16.1252 123.991 15.9759C123.841 15.8266 123.756 15.6239 123.735 15.3679C123.692 14.1412 123.393 13.2826 122.839 12.7919C122.284 12.3012 121.345 12.0559 120.023 12.0559H115.543C114.145 12.0559 113.175 12.3332 112.631 12.8879C112.087 13.4319 111.815 14.4026 111.815 15.7999C111.815 17.1972 112.087 18.1732 112.631 18.7279C113.185 19.2719 114.167 19.5439 115.575 19.5439H119.959C121.943 19.5439 123.393 20.0079 124.311 20.9359C125.228 21.8532 125.687 23.2986 125.687 25.2719C125.687 27.2452 125.228 28.6906 124.311 29.6079C123.393 30.5146 121.943 30.9679 119.959 30.9679H115.351ZM132.09 30.9999C131.525 30.9999 131.242 30.7172 131.242 30.1519V11.2239C131.242 10.6586 131.525 10.3759 132.09 10.3759C132.645 10.3759 132.922 10.6586 132.922 11.2239V20.4239L142.426 10.6799C142.81 10.2852 143.199 10.2799 143.594 10.6639C144.01 11.0479 144.021 11.4479 143.626 11.8639L136.458 19.2079L144.89 29.6719C145.242 30.1092 145.205 30.5039 144.778 30.8559C144.341 31.2079 143.951 31.1706 143.61 30.7439L135.29 20.4239L132.922 22.8399V30.1519C132.922 30.7172 132.645 30.9999 132.09 30.9999Z" fill="white"/>
<path d="M50.6879 20.1583C51.3013 20.5518 51.3013 21.4482 50.6879 21.8417L46.7899 24.3422C46.1244 24.7692 45.25 24.2913 45.25 23.5006V18.4994C45.25 17.7087 46.1244 17.2308 46.7899 17.6578L50.6879 20.1583Z" fill="#E1351F"/>
</svg>
