<svg width="146" height="38" viewBox="0 0 146 38" fill="none" xmlns="http://www.w3.org/2000/svg">
<path d="M3.84 31C3.27467 31 2.992 30.7173 2.992 30.152V11.224C2.992 10.6587 3.27467 10.376 3.84 10.376H15.824C16.3893 10.376 16.672 10.6587 16.672 11.224C16.672 11.7787 16.3893 12.056 15.824 12.056H4.672V19.72H12.048C12.6133 19.72 12.896 19.9973 12.896 20.552C12.896 21.1173 12.6133 21.4 12.048 21.4H4.672V29.32H15.824C16.3893 29.32 16.672 29.5973 16.672 30.152C16.672 30.7173 16.3893 31 15.824 31H3.84ZM34.8815 31.032C34.6468 31.1707 34.4335 31.2187 34.2415 31.176C34.0495 31.1333 33.8788 31 33.7295 30.776L28.4815 22.424H22.6095V30.152C22.6095 30.7173 22.3322 31 21.7775 31C21.2122 31 20.9295 30.7173 20.9295 30.152V11.224C20.9295 10.6587 21.2122 10.376 21.7775 10.376H29.2655C31.0895 10.376 32.4655 10.8453 33.3935 11.784C34.3322 12.7227 34.8015 14.104 34.8015 15.928V16.888C34.8015 18.4987 34.4335 19.7627 33.6975 20.68C32.9615 21.5973 31.8735 22.1573 30.4335 22.36L35.1535 29.88C35.4522 30.3707 35.3615 30.7547 34.8815 31.032ZM22.6095 20.744H29.2655C30.6095 20.744 31.5855 20.44 32.1935 19.832C32.8122 19.2133 33.1215 18.232 33.1215 16.888V15.928C33.1215 14.5733 32.8122 13.592 32.1935 12.984C31.5855 12.3653 30.6095 12.056 29.2655 12.056H22.6095V20.744ZM46.1383 31C43.8236 31 42.1329 30.4667 41.0663 29.4C39.9996 28.3333 39.4663 26.6427 39.4663 24.328V17.032C39.4663 14.696 39.9996 13 41.0663 11.944C42.1329 10.8773 43.8129 10.3547 46.1063 10.376H49.9783C52.2929 10.376 53.9783 10.9093 55.0343 11.976C56.1009 13.0427 56.6343 14.7333 56.6343 17.048V24.328C56.6343 26.6427 56.1009 28.3333 55.0343 29.4C53.9783 30.4667 52.2929 31 49.9783 31H46.1383ZM46.1383 29.32H49.9783C51.2049 29.32 52.1809 29.16 52.9062 28.84C53.6316 28.52 54.1543 27.9973 54.4743 27.272C54.7943 26.5467 54.9543 25.5653 54.9543 24.328V17.048C54.9543 15.8213 54.7943 14.8453 54.4743 14.12C54.1543 13.3947 53.6316 12.872 52.9062 12.552C52.1809 12.2213 51.2049 12.056 49.9783 12.056H46.1063C44.8796 12.0453 43.9036 12.2 43.1783 12.52C42.4636 12.8293 41.9463 13.352 41.6263 14.088C41.3063 14.8133 41.1463 15.7947 41.1463 17.032V24.328C41.1463 25.5653 41.3063 26.5467 41.6263 27.272C41.9463 27.9973 42.4689 28.52 43.1943 28.84C43.9196 29.16 44.9009 29.32 46.1383 29.32Z" fill="#E1351F"/>
<path d="M63.0275 31C62.4622 31 62.1795 30.7173 62.1795 30.152V11.224C62.1795 10.6587 62.4622 10.376 63.0275 10.376H70.5155C72.3395 10.376 73.7155 10.8453 74.6435 11.784C75.5822 12.7227 76.0515 14.104 76.0515 15.928V16.888C76.0515 18.7013 75.5822 20.0773 74.6435 21.016C73.7155 21.9547 72.3395 22.424 70.5155 22.424H63.8595V30.152C63.8595 30.7173 63.5822 31 63.0275 31ZM63.8595 20.744H70.5155C71.8595 20.744 72.8355 20.44 73.4435 19.832C74.0622 19.2133 74.3715 18.232 74.3715 16.888V15.928C74.3715 14.5733 74.0622 13.592 73.4435 12.984C72.8355 12.3653 71.8595 12.056 70.5155 12.056H63.8595V20.744ZM86.357 31C84.0423 31 82.3517 30.4667 81.285 29.4C80.2183 28.3333 79.685 26.6427 79.685 24.328V17.032C79.685 14.696 80.2183 13 81.285 11.944C82.3517 10.8773 84.0317 10.3547 86.325 10.376H90.197C92.5117 10.376 94.197 10.9093 95.253 11.976C96.3197 13.0427 96.853 14.7333 96.853 17.048V24.328C96.853 26.6427 96.3197 28.3333 95.253 29.4C94.197 30.4667 92.5117 31 90.197 31H86.357ZM86.357 29.32H90.197C91.4237 29.32 92.3997 29.16 93.125 28.84C93.8503 28.52 94.373 27.9973 94.693 27.272C95.013 26.5467 95.173 25.5653 95.173 24.328V17.048C95.173 15.8213 95.013 14.8453 94.693 14.12C94.373 13.3947 93.8503 12.872 93.125 12.552C92.3997 12.2213 91.4237 12.056 90.197 12.056H86.325C85.0983 12.0453 84.1223 12.2 83.397 12.52C82.6823 12.8293 82.165 13.352 81.845 14.088C81.525 14.8133 81.365 15.7947 81.365 17.032V24.328C81.365 25.5653 81.525 26.5467 81.845 27.272C82.165 27.9973 82.6877 28.52 83.413 28.84C84.1383 29.16 85.1197 29.32 86.357 29.32ZM103.246 31C102.98 31 102.772 30.9253 102.622 30.776C102.473 30.6267 102.398 30.4187 102.398 30.152V11.208C102.398 10.9413 102.473 10.7333 102.622 10.584C102.772 10.4347 102.98 10.36 103.246 10.36C103.502 10.36 103.705 10.4347 103.854 10.584C104.004 10.7333 104.078 10.9413 104.078 11.208V30.152C104.078 30.4187 104.004 30.6267 103.854 30.776C103.705 30.9253 103.502 31 103.246 31ZM115.351 30.968C113.441 30.968 112.023 30.5467 111.095 29.704C110.177 28.8507 109.687 27.512 109.623 25.688C109.612 25.432 109.681 25.2293 109.831 25.08C109.991 24.92 110.199 24.84 110.455 24.84C110.711 24.84 110.913 24.9147 111.062 25.064C111.212 25.2133 111.297 25.416 111.319 25.672C111.361 27.016 111.681 27.9547 112.279 28.488C112.876 29.0213 113.9 29.288 115.351 29.288H119.959C121.473 29.288 122.524 28.9947 123.111 28.408C123.708 27.8107 124.007 26.7653 124.007 25.272C124.007 23.7573 123.708 22.7067 123.111 22.12C122.524 21.5227 121.473 21.224 119.959 21.224H115.575C113.697 21.224 112.321 20.7867 111.447 19.912C110.572 19.0373 110.135 17.6667 110.135 15.8C110.135 13.9333 110.567 12.5627 111.431 11.688C112.305 10.8133 113.676 10.376 115.543 10.376H120.023C121.815 10.376 123.143 10.776 124.007 11.576C124.881 12.376 125.351 13.6347 125.415 15.352C125.436 15.608 125.367 15.816 125.207 15.976C125.057 16.1253 124.849 16.2 124.583 16.2C124.337 16.2 124.14 16.1253 123.991 15.976C123.841 15.8267 123.756 15.624 123.735 15.368C123.692 14.1413 123.393 13.2827 122.839 12.792C122.284 12.3013 121.345 12.056 120.023 12.056H115.543C114.145 12.056 113.175 12.3333 112.631 12.888C112.087 13.432 111.815 14.4027 111.815 15.8C111.815 17.1973 112.087 18.1733 112.631 18.728C113.185 19.272 114.167 19.544 115.575 19.544H119.959C121.943 19.544 123.393 20.008 124.311 20.936C125.228 21.8533 125.687 23.2987 125.687 25.272C125.687 27.2453 125.228 28.6907 124.311 29.608C123.393 30.5147 121.943 30.968 119.959 30.968H115.351ZM132.09 31C131.525 31 131.242 30.7173 131.242 30.152V11.224C131.242 10.6587 131.525 10.376 132.09 10.376C132.645 10.376 132.922 10.6587 132.922 11.224V20.424L142.426 10.68C142.81 10.2853 143.199 10.28 143.594 10.664C144.01 11.048 144.021 11.448 143.626 11.864L136.458 19.208L144.89 29.672C145.242 30.1093 145.205 30.504 144.778 30.856C144.341 31.208 143.951 31.1707 143.61 30.744L135.29 20.424L132.922 22.84V30.152C132.922 30.7173 132.645 31 132.09 31Z" fill="black"/>
<path d="M50.6879 20.1583C51.3013 20.5518 51.3013 21.4482 50.6879 21.8417L46.7899 24.3422C46.1244 24.7692 45.25 24.2913 45.25 23.5006L45.25 18.4994C45.25 17.7087 46.1244 17.2308 46.7899 17.6578L50.6879 20.1583Z" fill="#E1351F"/>
</svg>
