<svg width="23.000000" height="20.000000" viewBox="0 0 23 20" fill="none" xmlns="http://www.w3.org/2000/svg" xmlns:xlink="http://www.w3.org/1999/xlink">
	<desc>
			Created with Pixso.
	</desc>
	<defs/>
	<path id="Vector" d="M14.14 1.45L4.37 10.81C2.95 12.17 2.75 14.41 4.09 15.83C5.45 17.29 7.8 17.41 9.32 16.1C9.37 16.06 9.42 16.02 9.46 15.97L17.59 8.18C17.66 8.12 17.72 8.04 17.75 7.96C17.79 7.87 17.81 7.78 17.81 7.68C17.81 7.59 17.79 7.49 17.75 7.41C17.72 7.32 17.66 7.24 17.59 7.18C17.45 7.05 17.26 6.97 17.07 6.97C16.87 6.97 16.69 7.05 16.54 7.18L8.5 14.88C7.68 15.67 6.34 15.82 5.44 15.12C5.2 14.93 5 14.7 4.86 14.43C4.72 14.17 4.64 13.88 4.62 13.57C4.61 13.27 4.66 12.97 4.77 12.7C4.88 12.42 5.05 12.16 5.27 11.96L15.19 2.46C15.9 1.79 16.83 1.42 17.81 1.42C18.78 1.42 19.72 1.79 20.43 2.46C20.77 2.78 21.04 3.17 21.23 3.6C21.42 4.03 21.51 4.5 21.51 4.96C21.51 5.43 21.42 5.9 21.23 6.33C21.04 6.76 20.77 7.15 20.43 7.47L10.49 17C8.57 18.83 5.46 19.13 3.37 17.48C1.16 15.73 0.84 12.6 2.65 10.48C2.76 10.35 2.88 10.23 3 10.12L11.31 2.16C11.37 2.1 11.43 2.02 11.47 1.93C11.5 1.85 11.52 1.75 11.52 1.66C11.52 1.57 11.5 1.47 11.47 1.39C11.43 1.3 11.37 1.22 11.31 1.16C11.16 1.02 10.98 0.95 10.78 0.95C10.59 0.95 10.4 1.02 10.26 1.16L1.95 9.12C1.33 9.7 0.84 10.4 0.5 11.18C0.17 11.95 0 12.79 0 13.63C0 14.48 0.17 15.32 0.5 16.09C0.84 16.87 1.33 17.57 1.95 18.15C5.09 21.16 9.42 20.02 11.52 18.02L21.47 8.48C21.96 8.03 22.34 7.48 22.6 6.88C22.86 6.27 23 5.62 23 4.96C23 4.31 22.86 3.66 22.6 3.05C22.34 2.45 21.96 1.9 21.47 1.45C19.45 -0.49 16.17 -0.49 14.14 1.45Z" fill="#3A3C47" fill-opacity="1.000000" fill-rule="nonzero"/>
</svg>
