<svg width="26.000000" height="34.000000" viewBox="0 0 26 34" fill="none" xmlns="http://www.w3.org/2000/svg" xmlns:xlink="http://www.w3.org/1999/xlink">
	<desc>
			Created with Pixso.
	</desc>
	<defs/>
	<path id="Vector" d="M23.52 15.48C23.1 14.92 22.58 14.43 22.1 13.94C20.85 12.8 19.44 11.99 18.25 10.8C15.48 8.04 14.87 3.49 16.64 0C14.87 0.43 13.33 1.41 12.01 2.49C7.2 6.42 5.31 13.35 7.57 19.3C7.65 19.49 7.72 19.68 7.72 19.92C7.72 20.34 7.44 20.72 7.07 20.87C6.65 21.06 6.2 20.94 5.85 20.64C5.74 20.55 5.65 20.44 5.59 20.32C3.49 17.62 3.16 13.75 4.57 10.65C1.47 13.22 -0.22 17.56 0.02 21.66C0.13 22.61 0.24 23.55 0.56 24.49C0.82 25.63 1.32 26.76 1.87 27.76C3.88 31.03 7.35 33.37 11.08 33.84C15.06 34.35 19.31 33.62 22.36 30.82C25.75 27.69 26.94 22.66 25.2 18.36L24.95 17.86C24.56 17 23.52 15.48 23.52 15.48ZM17.66 27.38C17.14 27.84 16.28 28.33 15.61 28.52C13.54 29.27 11.46 28.22 10.23 26.97C12.44 26.44 13.76 24.78 14.15 23.1C14.46 21.59 13.87 20.34 13.63 18.88C13.41 17.49 13.44 16.3 13.94 14.99C14.3 15.71 14.67 16.43 15.11 17C16.54 18.88 18.79 19.72 19.27 22.28C19.35 22.55 19.38 22.81 19.38 23.1C19.44 24.65 18.77 26.35 17.66 27.38Z" fill="#FDFEFD" fill-opacity="1.000000" fill-rule="nonzero"/>
</svg>
