<svg width="18.000000" height="16.000000" viewBox="0 0 18 16" fill="none" xmlns="http://www.w3.org/2000/svg" xmlns:xlink="http://www.w3.org/1999/xlink">
	<desc>
			Created with Pixso.
	</desc>
	<defs/>
	<path id="Vector" d="M1 0C0.73 0 0.48 0.1 0.29 0.29C0.1 0.48 0 0.73 0 1C0 1.26 0.1 1.51 0.29 1.7C0.48 1.89 0.73 2 1 2L17 2C17.26 2 17.51 1.89 17.7 1.7C17.89 1.51 18 1.26 18 1C18 0.73 17.89 0.48 17.7 0.29C17.51 0.1 17.26 0 17 0L1 0ZM0 8C0 7.73 0.1 7.48 0.29 7.29C0.48 7.1 0.73 7 1 7L4 7C4.26 7 4.51 7.1 4.7 7.29C4.89 7.48 5 7.73 5 8C5 8.26 4.89 8.51 4.7 8.7C4.51 8.89 4.26 9 4 9L1 9C0.73 9 0.48 8.89 0.29 8.7C0.1 8.51 0 8.26 0 8ZM0 15C0 14.73 0.1 14.48 0.29 14.29C0.48 14.1 0.73 14 1 14L5 14C5.26 14 5.51 14.1 5.7 14.29C5.89 14.48 6 14.73 6 15C6 15.26 5.89 15.51 5.7 15.7C5.51 15.89 5.26 16 5 16L1 16C0.73 16 0.48 15.89 0.29 15.7C0.1 15.51 0 15.26 0 15ZM7 10C7 9.22 7.18 8.45 7.53 7.75C7.88 7.05 8.39 6.45 9.01 5.98C9.64 5.52 10.36 5.21 11.13 5.07C11.9 4.94 12.69 4.98 13.43 5.21C14.18 5.43 14.86 5.83 15.43 6.36C16 6.9 16.43 7.56 16.7 8.29C16.96 9.03 17.05 9.81 16.96 10.59C16.87 11.36 16.6 12.1 16.17 12.75L17.7 14.29C17.88 14.48 17.99 14.73 17.98 14.99C17.98 15.25 17.88 15.5 17.69 15.69C17.5 15.88 17.25 15.98 16.99 15.98C16.73 15.99 16.48 15.88 16.29 15.7L14.75 14.17C14 14.67 13.12 14.95 12.22 14.99C11.32 15.03 10.42 14.83 9.63 14.4C8.83 13.97 8.17 13.34 7.7 12.56C7.24 11.78 6.99 10.9 7 10ZM12 7C11.6 7 11.21 7.07 10.85 7.22C10.48 7.37 10.15 7.6 9.87 7.87C9.6 8.15 9.37 8.48 9.22 8.85C9.07 9.21 9 9.6 9 10C9 10.39 9.07 10.78 9.22 11.14C9.37 11.51 9.6 11.84 9.87 12.12C10.15 12.39 10.48 12.62 10.85 12.77C11.21 12.92 11.6 13 12 13C12.79 13 13.55 12.68 14.12 12.12C14.68 11.55 15 10.79 15 10C15 9.2 14.68 8.44 14.12 7.87C13.55 7.31 12.79 7 12 7Z" fill="#888996" fill-opacity="1.000000" fill-rule="nonzero"/>
</svg>
