<svg width="20.000000" height="22.500000" viewBox="0 0 20 22.5" fill="none" xmlns="http://www.w3.org/2000/svg" xmlns:xlink="http://www.w3.org/1999/xlink">
	<desc>
			Created with Pixso.
	</desc>
	<defs/>
	<path id="Vector" d="M14 3L14 1.75C14 0.78 13.21 0 12.25 0L7.75 0C6.78 0 6 0.78 6 1.75L6 3L0.75 3C0.55 3 0.36 3.07 0.21 3.21C0.07 3.36 0 3.55 0 3.75C0 3.94 0.07 4.13 0.21 4.28C0.36 4.42 0.55 4.5 0.75 4.5L19.25 4.5C19.44 4.5 19.63 4.42 19.78 4.28C19.92 4.13 20 3.94 20 3.75C20 3.55 19.92 3.36 19.78 3.21C19.63 3.07 19.44 3 19.25 3L14 3ZM7.5 3L7.5 1.75C7.5 1.68 7.52 1.62 7.57 1.57C7.62 1.52 7.68 1.5 7.75 1.5L12.25 1.5C12.31 1.5 12.37 1.52 12.42 1.57C12.47 1.62 12.5 1.68 12.5 1.75L12.5 3L7.5 3ZM2.91 5.89C2.96 5.98 2.98 6.07 2.99 6.17L4.4 20.77C4.41 20.83 4.44 20.89 4.48 20.93C4.53 20.97 4.59 21 4.65 21L15.34 21C15.4 21 15.46 20.97 15.51 20.93C15.55 20.89 15.58 20.83 15.59 20.77L17 6.17C17.02 5.97 17.11 5.79 17.27 5.67C17.42 5.54 17.62 5.48 17.82 5.5C18.02 5.52 18.2 5.61 18.32 5.77C18.45 5.92 18.51 6.12 18.49 6.32L17.08 20.91C17.04 21.35 16.84 21.75 16.51 22.04C16.19 22.33 15.77 22.5 15.34 22.5L4.65 22.5C4.22 22.5 3.8 22.33 3.48 22.04C3.16 21.75 2.95 21.35 2.91 20.92L1.5 6.32C1.49 6.22 1.5 6.12 1.53 6.02C1.55 5.93 1.6 5.84 1.66 5.76C1.73 5.69 1.8 5.62 1.89 5.58C1.98 5.53 2.07 5.5 2.17 5.49C2.27 5.48 2.37 5.49 2.47 5.52C2.56 5.55 2.65 5.6 2.72 5.66C2.8 5.72 2.86 5.8 2.91 5.89ZM13.31 7.75C13.44 7.9 13.51 8.09 13.49 8.29L12.99 16.79C12.98 16.99 12.89 17.17 12.74 17.31C12.59 17.44 12.4 17.51 12.2 17.49C12 17.48 11.82 17.39 11.68 17.24C11.55 17.09 11.48 16.9 11.5 16.7L12 8.2C12.01 8 12.1 7.82 12.25 7.68C12.39 7.55 12.59 7.48 12.79 7.5C12.99 7.51 13.17 7.6 13.31 7.75ZM7.49 7.54C7.4 7.5 7.3 7.49 7.2 7.5L7.2 7.5C7.1 7.5 7.01 7.53 6.92 7.57C6.83 7.61 6.75 7.67 6.68 7.75C6.62 7.82 6.57 7.91 6.54 8C6.5 8.09 6.49 8.19 6.5 8.29L7 16.79C7.01 16.99 7.1 17.17 7.25 17.31C7.39 17.44 7.59 17.51 7.79 17.49C7.99 17.48 8.17 17.39 8.31 17.24C8.44 17.1 8.51 16.9 8.49 16.7L7.99 8.2C7.99 8.1 7.96 8.01 7.92 7.92C7.88 7.83 7.82 7.75 7.74 7.68C7.67 7.62 7.58 7.57 7.49 7.54Z" fill="#FFFFFF" fill-opacity="1.000000" fill-rule="evenodd"/>
</svg>
