<svg width="777" height="270" viewBox="0 0 777 270" fill="none" xmlns="http://www.w3.org/2000/svg">
<path d="M4.04968 269.312C2.68435 269.653 1.66035 268.8 0.97768 266.752C0.636346 264.704 0.636346 262.485 0.97768 260.096C1.66035 256.341 3.02568 253.44 5.07368 251.392C5.41501 251.051 6.09768 250.88 7.12168 250.88C8.82835 250.197 10.8763 249.685 13.2657 249.344C15.655 249.003 18.215 248.661 20.9457 248.32C24.0177 247.637 27.943 247.125 32.7217 246.784C37.5003 246.443 41.767 245.589 45.5217 244.224L72.1457 241.664C71.8043 241.323 71.6337 240.64 71.6337 239.616C71.6337 239.275 71.8043 238.933 72.1457 238.592C72.8284 237.909 73.3404 237.397 73.6817 237.056C73.6817 236.373 73.511 236.032 73.1697 236.032C73.1697 235.691 73.3404 235.349 73.6817 235.008C79.143 222.037 87.1643 206.336 97.7457 187.904C108.668 169.131 119.591 149.845 130.514 130.048L138.194 116.224C138.876 113.835 139.9 112.469 141.266 112.128C142.972 111.445 144.167 110.421 144.85 109.056C145.532 108.032 145.362 107.349 144.338 107.008C143.655 106.667 143.826 105.813 144.85 104.448C149.97 95.232 155.772 86.016 162.258 76.8C169.084 67.584 175.058 59.2213 180.178 51.712V51.2C181.202 50.176 182.226 49.3226 183.25 48.64C184.274 47.9573 185.127 47.104 185.81 46.08C185.468 45.7386 185.468 45.3973 185.81 45.056C186.151 44.7146 186.151 44.3733 185.81 44.032C187.175 42.6666 188.37 41.3013 189.394 39.936C190.418 38.5706 191.1 36.864 191.442 34.816L200.146 23.04C195.708 23.7226 187.687 24.2346 176.082 24.576C164.818 24.576 153.383 25.088 141.778 26.112C139.047 26.7946 137.17 27.3066 136.146 27.648C133.756 27.9893 131.367 28.5013 128.978 29.184C126.588 29.8666 124.199 30.5493 121.81 31.232C119.42 31.232 116.348 32.256 112.594 34.304C108.839 36.352 105.596 38.4 102.866 40.448C100.135 42.1546 98.599 43.008 98.2577 43.008C95.527 45.056 92.455 48.4693 89.0417 53.248C85.9697 58.0266 83.5804 62.6346 81.8737 67.072C80.167 71.5093 79.8257 74.5813 80.8497 76.288C80.8497 76.9706 80.679 77.6533 80.3377 78.336C80.3377 79.0186 80.3377 79.7013 80.3377 80.384C80.3377 83.7973 81.191 86.6986 82.8977 89.088C84.6044 92.16 85.287 93.8666 84.9457 94.208L87.5057 97.28L91.6017 98.816C93.3083 99.84 94.1617 101.035 94.1617 102.4C94.1617 104.107 92.967 104.96 90.5777 104.96C88.871 104.96 86.823 103.765 84.4337 101.376C83.0683 100.693 81.703 100.011 80.3377 99.328C78.9723 98.6453 77.4363 98.1333 75.7297 97.792C70.2683 98.816 66.343 98.1333 63.9537 95.744C61.9057 93.3546 60.8817 90.112 60.8817 86.016C60.8817 78.5066 63.783 70.656 69.5857 62.464C72.6577 58.368 76.2417 54.272 80.3377 50.176C81.703 48.8106 82.8977 47.4453 83.9217 46.08C85.287 44.7146 86.6523 44.032 88.0177 44.032C89.383 45.3973 90.5777 45.7386 91.6017 45.056C92.967 44.3733 94.503 43.1786 96.2097 41.472C96.2097 41.472 95.1857 41.472 93.1377 41.472C91.7724 41.8133 91.7724 41.472 93.1377 40.448C94.503 39.0826 95.1857 38.4 95.1857 38.4C95.8684 37.7173 97.2337 36.864 99.2817 35.84C101.33 34.4746 103.207 33.4506 104.914 32.768C108.668 31.0613 111.911 29.5253 114.642 28.16C117.372 26.7946 120.444 25.7706 123.858 25.088C127.954 24.064 131.879 22.8693 135.634 21.504C139.73 20.1386 143.826 18.944 147.922 17.92C150.652 17.2373 153.212 16.896 155.602 16.896C157.991 16.5546 160.38 16.2133 162.77 15.872C163.452 15.872 164.818 15.5306 166.866 14.848H169.938L170.962 14.336C171.644 13.9946 172.668 13.824 174.034 13.824C175.74 13.4826 176.764 13.6533 177.106 14.336H181.202C183.932 13.6533 186.834 13.312 189.906 13.312C192.978 13.312 195.879 13.312 198.61 13.312C200.316 13.312 202.023 13.312 203.73 13.312C205.778 12.9706 207.484 12.8 208.85 12.8L211.922 9.72795L214.994 7.16795L222.674 2.04796C224.722 1.02396 226.599 0.511963 228.306 0.511963C230.012 0.511963 230.866 1.02396 230.866 2.04796C230.866 3.41329 230.183 4.77863 228.818 6.14395C227.794 7.16796 226.77 8.19196 225.746 9.21596C225.063 10.24 224.38 11.264 223.698 12.288C226.428 12.288 230.524 12.4586 235.986 12.8C241.788 12.8 247.42 12.9706 252.882 13.312C258.343 13.6533 262.268 13.9946 264.658 14.336C265.34 14.336 266.876 14.848 269.266 15.872C271.655 16.5546 273.532 17.2373 274.898 17.92L276.434 18.432C278.14 18.7733 278.994 20.1386 278.994 22.528C278.994 24.9173 277.799 25.6 275.41 24.576L271.314 23.04L266.194 22.528C263.122 22.1866 259.026 21.8453 253.906 21.504C249.127 21.1626 244.69 20.992 240.594 20.992H233.938C233.596 20.992 233.255 21.1626 232.914 21.504C232.572 21.504 232.231 21.504 231.89 21.504C229.842 21.504 227.794 21.504 225.746 21.504C223.698 21.1626 221.65 20.992 219.602 20.992L211.41 21.504H210.898C206.46 27.3066 201.682 33.9626 196.562 41.472C191.783 48.9813 187.004 56.6613 182.226 64.512C181.543 67.2426 180.69 68.9493 179.666 69.632C178.642 70.3146 177.106 70.9973 175.058 71.68V73.216C175.058 74.5813 174.716 76.288 174.034 78.336L168.402 88.064C166.695 91.136 164.818 94.208 162.77 97.28C161.063 100.011 159.698 102.741 158.674 105.472C154.919 112.299 150.994 119.467 146.898 126.976C143.143 134.485 139.73 141.312 136.658 147.456C133.927 153.259 132.05 157.355 131.026 159.744L129.49 167.424C128.807 168.448 127.271 168.789 124.882 168.448C122.834 168.107 121.81 168.96 121.81 171.008C121.81 172.715 122.151 174.08 122.834 175.104C123.516 175.787 123.858 176.64 123.858 177.664C123.858 178.688 123.175 179.883 121.81 181.248C119.079 187.051 116.348 192.683 113.618 198.144C111.228 203.605 109.18 208.725 107.474 213.504C107.474 213.845 106.962 214.699 105.938 216.064C105.255 217.429 104.743 218.453 104.402 219.136C104.06 219.477 104.231 219.648 104.914 219.648C105.596 219.648 105.767 219.989 105.426 220.672C104.743 224.085 103.89 227.669 102.866 231.424C101.842 234.837 100.818 237.909 99.7937 240.64H100.306C102.354 240.64 104.572 240.469 106.962 240.128C109.351 239.787 111.74 239.445 114.13 239.104C118.226 238.763 122.834 238.592 127.954 238.592C133.415 238.592 137.682 238.592 140.754 238.592C142.46 238.592 144.679 238.763 147.41 239.104C150.482 239.104 152.7 239.275 154.066 239.616C155.09 239.957 155.26 240.299 154.578 240.64C154.236 240.981 154.407 241.323 155.09 241.664C156.114 241.664 156.967 241.493 157.65 241.152C158.332 240.811 159.356 240.64 160.722 240.64C162.428 239.616 163.964 239.787 165.33 241.152C166.695 241.152 167.89 241.323 168.914 241.664C170.279 242.005 171.474 242.347 172.498 242.688C174.887 243.029 176.082 244.395 176.082 246.784C176.082 249.173 174.546 249.856 171.474 248.832L166.866 247.296H164.818C161.404 247.296 156.114 247.125 148.946 246.784C142.119 246.443 135.804 246.443 130.002 246.784C128.978 246.784 128.636 246.443 128.978 245.76C129.319 244.736 129.148 244.224 128.466 244.224C128.124 244.224 127.271 244.565 125.906 245.248C124.882 245.931 124.028 246.272 123.346 246.272L119.25 247.808L95.1857 250.368C95.527 250.709 95.527 251.221 95.1857 251.904C95.1857 252.245 94.6737 252.928 93.6497 253.952C92.967 254.976 92.6257 255.829 92.6257 256.512C91.2604 259.584 89.383 261.632 86.9937 262.656C84.9457 264.021 82.8977 264.704 80.8497 264.704C78.119 264.704 75.7297 264.021 73.6817 262.656C71.6337 261.291 70.439 260.267 70.0977 259.584L68.5617 255.488L60.8817 257.024C57.127 257.707 55.2497 257.877 55.2497 257.536C55.591 257.195 56.103 256.683 56.7857 256C57.8097 254.976 57.4684 254.464 55.7617 254.464H54.7377C52.3483 254.464 49.959 254.976 47.5697 256C45.5217 257.024 44.327 257.877 43.9857 258.56C43.9857 259.243 42.6203 260.096 39.8897 261.12C37.159 262.144 34.4283 262.827 31.6977 263.168C29.3083 263.851 27.943 264.363 27.6017 264.704C23.1643 265.728 18.8977 266.581 14.8017 267.264C10.7057 267.947 7.12168 268.629 4.04968 269.312Z" fill="white"/>
<path d="M168.822 257.536C166.774 257.536 165.75 256.341 165.75 253.952C165.75 252.245 166.262 250.197 167.286 247.808C170.016 242.005 173.259 233.813 177.014 223.232C180.768 212.651 185.376 203.605 190.838 196.096L210.806 151.552C210.806 151.552 210.464 151.381 209.782 151.04C209.099 150.357 208.758 149.675 208.758 148.992C206.71 147.627 204.491 145.749 202.102 143.36C200.054 140.629 199.883 137.899 201.59 135.168C202.272 134.485 202.784 134.144 203.126 134.144C203.467 134.144 203.638 134.144 203.638 134.144V133.12C203.638 131.755 204.15 130.901 205.174 130.56C206.539 130.219 207.392 129.707 207.734 129.024C208.416 124.245 212.342 120.661 219.51 118.272C227.019 115.883 233.675 114.688 239.478 114.688C245.28 114.688 248.182 115.541 248.182 117.248C248.182 118.272 247.158 119.467 245.11 120.832C244.427 121.515 242.72 123.051 239.99 125.44C237.6 127.829 235.382 130.731 233.334 134.144L229.75 140.288L226.166 144.896C220.704 154.795 216.267 163.157 212.854 169.984C209.44 176.811 205.344 185.515 200.566 196.096C199.542 198.144 199.03 199.851 199.03 201.216C199.03 202.923 199.712 203.776 201.078 203.776C201.76 203.776 202.443 203.605 203.126 203.264C204.15 202.581 205.174 202.069 206.198 201.728C208.928 200.021 211.147 198.485 212.854 197.12C214.902 195.413 217.12 193.707 219.51 192C220.534 190.976 221.387 190.976 222.07 192C222.752 192.683 222.752 193.707 222.07 195.072C220.704 197.803 219.68 199.509 218.998 200.192C218.656 200.533 218.144 200.875 217.462 201.216C216.779 201.557 215.243 203.093 212.854 205.824L210.806 209.92C210.123 210.603 209.27 211.968 208.246 214.016C207.563 215.723 207.222 216.747 207.222 217.088C207.222 217.771 206.88 218.112 206.198 218.112C205.515 217.771 204.491 218.283 203.126 219.648C202.784 219.989 202.614 220.672 202.614 221.696C202.955 222.72 202.784 223.573 202.102 224.256C201.76 225.28 201.248 226.133 200.566 226.816C199.883 227.157 199.542 227.499 199.542 227.84C199.2 229.205 198.518 230.059 197.494 230.4C196.811 230.4 196.128 230.741 195.446 231.424C195.104 231.424 194.934 231.765 194.934 232.448C194.934 235.179 194.592 236.373 193.91 236.032C193.227 235.691 192.544 236.032 191.862 237.056C191.179 238.421 190.326 239.104 189.302 239.104C187.254 239.787 186.4 240.299 186.742 240.64C187.083 240.981 187.595 241.323 188.278 241.664C188.96 241.664 188.448 242.176 186.742 243.2C185.718 243.541 184.864 244.565 184.182 246.272C183.499 247.637 182.816 248.661 182.134 249.344C181.451 250.027 180.598 250.539 179.574 250.88C178.55 251.221 177.696 251.904 177.014 252.928C173.942 256 171.211 257.536 168.822 257.536ZM321.398 253.44C320.032 253.44 318.838 253.44 317.814 253.44C316.79 253.099 315.766 252.757 314.742 252.416C311.328 251.733 308.256 250.709 305.526 249.344C303.136 247.979 301.088 245.419 299.382 241.664C299.04 239.957 298.187 237.739 296.822 235.008C295.798 232.277 295.115 229.717 294.774 227.328C294.432 225.621 294.262 223.573 294.262 221.184C293.92 219.477 293.75 217.259 293.75 214.528C293.067 211.115 292.726 208.043 292.726 205.312C293.067 202.581 293.238 199.339 293.238 195.584C293.238 191.829 293.408 189.099 293.75 187.392C294.432 184.32 294.774 182.784 294.774 182.784C294.774 182.443 294.774 180.736 294.774 177.664C295.115 173.568 295.286 169.301 295.286 164.864C295.286 160.427 295.456 156.843 295.798 154.112C296.822 143.872 294.774 138.752 289.654 138.752C287.606 138.752 284.875 139.605 281.462 141.312C281.12 142.336 280.438 143.019 279.414 143.36C278.731 143.36 277.707 143.701 276.342 144.384L273.782 145.92C273.782 146.261 273.44 146.432 272.758 146.432C272.075 146.091 271.734 146.261 271.734 146.944C272.075 148.309 271.904 149.163 271.222 149.504C270.88 149.845 270.368 149.675 269.686 148.992L264.054 153.088C264.054 153.429 263.542 154.112 262.518 155.136L262.006 155.648C260.64 157.013 259.446 157.696 258.422 157.696L256.886 159.232C256.886 159.573 256.544 160.256 255.862 161.28C255.52 161.963 254.667 162.133 253.302 161.792L250.742 164.352C249.376 166.4 248.182 167.595 247.158 167.936C246.475 168.277 245.622 168.619 244.598 168.96L240.502 174.08L238.454 174.592C238.454 175.957 236.918 178.005 233.846 180.736C231.115 183.467 229.238 185.344 228.214 186.368C227.19 187.392 226.166 187.904 225.142 187.904C224.459 187.904 224.118 187.563 224.118 186.88C224.118 186.539 224.971 185.173 226.678 182.784C228.043 181.419 230.091 178.859 232.822 175.104C235.894 171.349 237.6 169.643 237.942 169.984C239.648 168.277 240.843 166.571 241.526 164.864C242.208 162.816 243.403 161.109 245.11 159.744C245.11 160.085 245.11 160.427 245.11 160.768C245.451 160.768 245.622 160.768 245.622 160.768C246.304 160.768 247.158 159.915 248.182 158.208C249.206 156.16 249.888 155.307 250.23 155.648L258.934 147.968C258.934 147.627 259.787 146.944 261.494 145.92C262.859 145.237 263.712 144.896 264.054 144.896C264.395 144.896 265.248 143.872 266.614 141.824L270.198 139.264C270.539 138.581 270.88 138.752 271.222 139.776C271.904 140.459 272.416 140.629 272.758 140.288L274.294 136.704C274.976 135.68 276 134.827 277.366 134.144C279.072 133.12 280.779 132.096 282.486 131.072C286.582 126.976 289.654 124.928 291.702 124.928H293.75C298.187 123.221 302.283 122.368 306.038 122.368C311.499 122.368 315.766 124.416 318.838 128.512C319.52 129.536 320.203 131.413 320.886 134.144C321.568 134.485 321.739 134.997 321.398 135.68C321.398 136.021 321.568 136.533 321.91 137.216C322.251 137.899 322.934 138.752 323.958 139.776C324.982 140.459 325.494 141.312 325.494 142.336V143.36C325.494 144.725 324.64 145.92 322.934 146.944C324.64 148.309 325.323 149.163 324.982 149.504C324.982 149.504 324.811 150.016 324.47 151.04L323.446 158.208C323.104 160.597 322.592 162.475 321.91 163.84C321.227 164.864 320.544 166.741 319.862 169.472C321.227 171.52 321.227 172.885 319.862 173.568H318.838L318.326 175.616C318.326 176.299 318.667 176.981 319.35 177.664L317.814 180.736C318.155 180.395 318.326 180.395 318.326 180.736C318.667 180.736 318.838 180.736 318.838 180.736C318.496 181.419 317.984 182.784 317.302 184.832C316.619 186.539 316.107 187.904 315.766 188.928C315.424 190.635 314.742 191.488 313.718 191.488C312.694 191.488 312.352 192.341 312.694 194.048C313.035 194.389 313.206 195.584 313.206 197.632C313.547 199.339 313.376 200.192 312.694 200.192L311.67 206.336V207.872C311.67 209.579 311.328 211.285 310.646 212.992C310.304 214.699 309.963 216.405 309.622 218.112C309.28 219.819 308.939 221.696 308.598 223.744C308.598 225.451 308.598 227.157 308.598 228.864C308.598 230.229 308.598 231.765 308.598 233.472C308.939 234.837 309.28 236.203 309.622 237.568C309.622 237.909 310.134 238.933 311.158 240.64C312.182 242.347 312.694 243.371 312.694 243.712L314.23 245.248C314.912 245.589 315.936 245.589 317.302 245.248C319.008 244.907 320.203 245.077 320.886 245.76C323.958 246.101 327.883 244.565 332.662 241.152C337.782 237.397 342.39 233.301 346.486 228.864C347.51 227.84 348.534 227.328 349.558 227.328C350.24 227.328 350.752 227.84 351.094 228.864C351.435 229.888 351.094 231.253 350.07 232.96C344.608 240.811 339.488 246.272 334.71 249.344C329.931 252.075 325.494 253.44 321.398 253.44Z" fill="white"/>
<path d="M388.494 257.024C379.96 257.024 372.451 254.635 365.966 249.856C359.48 245.077 356.238 236.885 356.238 225.28C356.238 220.843 356.75 216.405 357.774 211.968C358.798 207.189 359.992 202.581 361.358 198.144C362.04 193.707 363.064 189.781 364.43 186.368C364.771 185.003 364.942 184.32 364.942 184.32C365.283 183.979 366.136 183.467 367.502 182.784L371.598 176.64V174.592C371.256 174.592 371.086 174.592 371.086 174.592C371.086 174.251 371.086 174.08 371.086 174.08C371.086 173.056 371.939 171.861 373.646 170.496C375.352 169.131 376.206 168.448 376.206 168.448C376.547 166.741 377.059 165.888 377.742 165.888C378.424 165.888 379.278 165.376 380.302 164.352H385.934V163.328C385.934 161.621 385.08 160.939 383.374 161.28C382.008 161.28 381.326 161.109 381.326 160.768C381.326 160.427 381.838 159.744 382.862 158.72C384.227 157.355 385.08 156.501 385.422 156.16C386.446 154.795 387.299 153.6 387.982 152.576C388.664 151.211 389.688 150.187 391.054 149.504C397.198 141.995 400.952 137.216 402.318 135.168C404.024 133.12 405.731 131.584 407.438 130.56C408.12 130.56 408.632 130.901 408.974 131.584C409.656 131.925 409.656 132.437 408.974 133.12C409.656 134.144 410.168 134.315 410.51 133.632C411.192 132.949 411.534 132.608 411.534 132.608L413.582 131.584C412.899 130.901 412.558 130.048 412.558 129.024C412.558 127.317 412.899 125.952 413.582 124.928C414.264 123.563 415.459 122.197 417.166 120.832C419.214 119.467 420.238 118.613 420.238 118.272C422.286 117.589 423.822 116.907 424.846 116.224C426.211 115.541 427.576 115.2 428.942 115.2C431.331 115.2 433.72 116.053 436.11 117.76C442.595 121.173 448.056 124.587 452.494 128C456.931 131.413 459.15 136.192 459.15 142.336C459.15 148.821 456.419 154.453 450.958 159.232C445.838 163.669 439.523 167.424 432.014 170.496C424.504 173.568 416.995 176.128 409.486 178.176C402.318 179.883 396.686 181.248 392.59 182.272C390.2 182.613 389.006 183.637 389.006 185.344C389.347 186.709 389.176 188.245 388.494 189.952L384.91 195.584L381.838 202.752L379.278 207.36C376.888 209.408 376.035 210.944 376.718 211.968C377.4 212.992 378.595 212.821 380.302 211.456C380.643 211.797 380.814 212.309 380.814 212.992C380.814 214.357 380.472 216.064 379.79 218.112C379.107 219.819 378.595 221.184 378.254 222.208C377.912 223.573 377.912 224.256 378.254 224.256C378.936 223.915 379.278 224.597 379.278 226.304L379.79 233.472C381.838 239.957 386.446 243.712 393.614 244.736C394.296 244.736 394.979 244.907 395.662 245.248C396.686 245.248 397.539 245.248 398.222 245.248C404.366 245.248 407.608 244.736 407.95 243.712C408.632 242.688 409.486 242.005 410.51 241.664C413.582 240.981 416.142 240.299 418.19 239.616C420.579 238.933 422.968 237.909 425.358 236.544C429.454 234.837 433.379 232.619 437.134 229.888C440.888 227.157 444.814 224.427 448.91 221.696L454.03 218.112C454.371 217.429 454.371 216.917 454.03 216.576C453.688 216.235 453.688 215.893 454.03 215.552C454.712 215.211 455.224 215.211 455.566 215.552C456.248 215.552 456.76 215.381 457.102 215.04C457.784 214.699 458.467 214.187 459.15 213.504C459.832 212.48 460.515 211.627 461.198 210.944C461.88 210.261 462.222 209.579 462.222 208.896C462.563 208.213 463.075 207.531 463.758 206.848C466.488 204.117 469.219 201.216 471.95 198.144C475.022 195.072 477.582 192.341 479.63 189.952C482.019 186.539 483.896 184.832 485.262 184.832C485.944 184.832 486.286 185.173 486.286 185.856C486.286 187.563 485.091 190.123 482.702 193.536C476.899 202.069 470.243 210.432 462.734 218.624C455.224 226.475 447.032 233.643 438.158 240.128C431.672 244.565 423.992 248.491 415.118 251.904C406.243 255.317 397.368 257.024 388.494 257.024ZM396.174 174.592C401.294 174.251 407.95 172.885 416.142 170.496C424.334 167.765 431.16 164.181 436.622 159.744C442.424 154.965 445.326 149.675 445.326 143.872C445.326 138.411 442.424 133.12 436.622 128C431.843 131.413 426.552 136.363 420.75 142.848C415.288 148.992 410.339 155.136 405.902 161.28C401.464 167.083 398.222 171.52 396.174 174.592Z" fill="#FF00A8"/>
<path d="M492.266 254.976C488.852 254.976 485.268 254.293 481.514 252.928C477.759 251.221 476.394 249.344 477.418 247.296C478.783 244.565 480.319 241.835 482.026 239.104C484.074 236.032 485.951 232.789 487.658 229.376L493.29 218.624C493.972 216.917 494.655 215.723 495.338 215.04C496.362 214.016 497.215 212.821 497.898 211.456C498.239 211.115 498.41 210.261 498.41 208.896C498.41 207.189 499.092 205.312 500.458 203.264C502.164 200.875 503.359 198.656 504.042 196.608C504.383 196.267 504.724 197.291 505.066 199.68C505.407 202.069 506.26 201.899 507.626 199.168C507.967 198.827 507.796 198.315 507.114 197.632C506.772 196.949 506.602 196.267 506.602 195.584C506.602 194.901 506.772 194.56 507.114 194.56C507.796 194.219 508.138 193.877 508.138 193.536C508.479 192.512 508.138 192.171 507.114 192.512C506.431 192.512 506.09 192.341 506.09 192C506.772 190.976 507.455 190.293 508.138 189.952C509.162 189.611 509.844 189.099 510.186 188.416C510.186 187.733 509.844 187.392 509.162 187.392C508.82 187.051 508.82 186.709 509.162 186.368C510.868 181.589 512.746 175.957 514.794 169.472C516.842 162.987 518.378 157.013 519.402 151.552C519.402 151.552 519.06 151.381 518.378 151.04C517.695 150.357 517.354 149.675 517.354 148.992L513.77 146.432C509.674 150.187 505.236 153.429 500.458 156.16C500.116 156.501 499.434 156.672 498.41 156.672C497.044 156.672 496.191 155.989 495.85 154.624C495.508 153.259 496.02 152.064 497.386 151.04C499.092 150.016 500.458 149.333 501.482 148.992C502.506 148.309 503.7 147.285 505.066 145.92C505.748 145.237 506.09 144.555 506.09 143.872C506.431 143.189 506.772 142.507 507.114 141.824L509.162 139.264C509.162 137.557 509.503 136.192 510.186 135.168C510.868 134.485 511.38 134.144 511.722 134.144C512.063 134.144 512.234 134.144 512.234 134.144V133.12C512.234 131.755 512.746 130.901 513.77 130.56C515.135 130.219 515.818 129.707 515.818 129.024C516.5 124.245 520.596 120.661 528.106 118.272C535.615 115.883 542.271 114.688 548.074 114.688C553.876 114.688 556.778 115.541 556.778 117.248C556.778 118.272 555.754 119.467 553.706 120.832C552.682 121.515 550.975 123.051 548.586 125.44C546.196 127.829 543.978 130.731 541.93 134.144L538.346 140.288L534.762 144.896C532.372 150.357 528.959 158.72 524.522 169.984C520.084 181.248 515.476 195.413 510.698 212.48C511.722 211.115 514.111 208.213 517.866 203.776C521.62 199.339 526.058 194.219 531.178 188.416C536.298 182.613 541.247 177.152 546.026 172.032C550.804 166.571 554.73 162.304 557.802 159.232L560.362 157.696C561.044 157.013 561.727 156.16 562.41 155.136C563.434 153.771 564.287 152.747 564.97 152.064C565.311 151.723 565.482 152.405 565.482 154.112C565.823 155.477 566.164 155.989 566.506 155.648C567.871 154.624 568.554 153.088 568.554 151.04C568.895 148.992 569.748 147.627 571.114 146.944C574.868 143.872 579.988 139.605 586.474 134.144C593.3 128.341 600.298 124.928 607.466 123.904C608.148 123.221 609.172 123.051 610.538 123.392C612.244 123.392 613.439 123.221 614.122 122.88C614.804 122.88 615.316 122.709 615.658 122.368C615.999 122.027 616.852 121.856 618.218 121.856C618.9 121.856 620.266 122.368 622.314 123.392C624.703 124.416 626.068 125.781 626.41 127.488C628.458 128.853 629.482 130.901 629.482 133.632C629.482 138.411 626.922 141.995 621.802 144.384C620.095 146.091 618.218 147.797 616.17 149.504C614.122 150.869 612.074 152.405 610.026 154.112C609.343 154.795 608.831 155.136 608.49 155.136C606.1 157.184 604.052 159.403 602.346 161.792C600.639 164.181 599.786 167.253 599.786 171.008C599.786 171.349 600.127 171.861 600.81 172.544C601.492 172.885 601.663 173.227 601.322 173.568C602.346 174.592 603.882 175.275 605.93 175.616C607.978 175.616 610.026 175.616 612.074 175.616C615.487 175.616 620.607 174.251 627.434 171.52H628.458C628.799 171.52 628.97 171.691 628.97 172.032C628.97 172.715 628.287 173.909 626.922 175.616C625.556 176.981 624.02 178.005 622.314 178.688C618.559 180.053 614.634 180.907 610.538 181.248C606.442 181.248 603.54 181.248 601.834 181.248C595.69 181.248 591.764 180.053 590.058 177.664C588.692 175.275 587.327 172.373 585.962 168.96V166.4L588.522 163.84C588.18 162.816 587.668 161.792 586.986 160.768C586.303 159.744 585.962 158.549 585.962 157.184C585.962 153.771 587.327 149.845 590.058 145.408C586.303 146.432 581.524 149.333 575.722 154.112C570.26 158.549 564.628 163.84 558.826 169.984C553.023 175.787 547.732 181.589 542.954 187.392C538.175 192.853 534.42 197.291 531.69 200.704C530.666 202.069 529.471 202.923 528.106 203.264C527.082 203.264 526.228 203.776 525.546 204.8C525.204 205.141 525.546 205.312 526.57 205.312C527.935 205.312 528.447 205.483 528.106 205.824C523.668 212.651 518.89 220.16 513.77 228.352C508.991 236.544 504.212 244.565 499.434 252.416C498.41 254.123 496.02 254.976 492.266 254.976Z" fill="#FF00A8"/>
<path d="M654.006 260.608C646.496 260.608 639.84 258.56 634.038 254.464C628.576 250.027 625.846 242.517 625.846 231.936C625.846 228.181 626.528 222.891 627.894 216.064C629.259 209.237 631.478 202.069 634.55 194.56C636.256 190.464 638.134 186.539 640.182 182.784C642.571 179.029 644.79 175.445 646.838 172.032C647.179 171.691 648.203 172.032 649.91 173.056C651.958 174.08 653.152 174.421 653.494 174.08C653.835 173.397 653.323 172.715 651.958 172.032C650.934 171.008 650.592 170.325 650.934 169.984C651.616 169.301 652.128 168.96 652.47 168.96C653.152 168.619 653.664 168.107 654.006 167.424C654.347 166.741 654.518 166.059 654.518 165.376C654.518 164.352 654.006 163.499 652.982 162.816C652.299 162.133 652.64 161.109 654.006 159.744C655.712 157.355 657.59 155.136 659.638 153.088C662.027 150.699 664.075 148.651 665.782 146.944C666.464 146.261 667.318 145.237 668.342 143.872C669.366 142.165 670.048 141.141 670.39 140.8L671.414 139.776C671.755 139.435 672.096 139.093 672.438 138.752C672.438 138.411 672.438 138.24 672.438 138.24C672.779 138.24 672.95 138.069 672.95 137.728C672.95 136.704 671.926 135.68 669.878 134.656C667.83 133.632 666.806 132.949 666.806 132.608C666.806 132.267 666.635 131.925 666.294 131.584C665.952 131.243 665.611 130.731 665.27 130.048C665.611 130.048 665.952 129.707 666.294 129.024C666.976 128 667.488 127.488 667.83 127.488C668.171 127.488 668.854 127.829 669.878 128.512C670.902 128.853 671.584 129.024 671.926 129.024C672.267 129.024 672.438 128.853 672.438 128.512C672.779 128.171 673.12 128 673.462 128C674.144 128 675.68 128.512 678.07 129.536C680.459 130.219 681.824 130.56 682.166 130.56C682.507 130.56 683.531 129.707 685.238 128C686.944 126.293 687.968 125.269 688.31 124.928C688.992 124.245 689.504 123.563 689.846 122.88C690.187 121.856 691.04 120.661 692.406 119.296H692.918C693.259 118.955 693.43 118.613 693.43 118.272C693.43 117.931 693.43 117.76 693.43 117.76C694.112 117.077 694.624 116.565 694.966 116.224C695.648 115.541 696.16 115.029 696.502 114.688C696.843 114.347 697.014 114.176 697.014 114.176C697.355 114.176 697.526 114.176 697.526 114.176C697.867 113.493 698.208 112.981 698.55 112.64C699.232 112.299 699.744 111.957 700.086 111.616L701.11 109.568C701.792 108.885 704.182 107.349 708.278 104.96C712.374 102.571 715.446 101.376 717.494 101.376H720.054C720.054 101.376 720.054 101.547 720.054 101.888C720.054 101.888 720.224 101.888 720.566 101.888C720.907 101.888 721.248 101.888 721.59 101.888C721.931 101.547 722.272 101.376 722.614 101.376C722.614 101.376 723.126 101.888 724.15 102.912C724.491 103.253 724.832 103.424 725.174 103.424C725.515 103.083 725.856 102.912 726.198 102.912C726.539 103.253 726.71 103.595 726.71 103.936C726.71 104.277 726.88 104.448 727.222 104.448C727.904 104.448 728.075 104.448 727.734 104.448C727.734 104.107 727.904 103.936 728.246 103.936C728.587 103.936 728.758 104.277 728.758 104.96C728.758 105.643 728.928 106.325 729.27 107.008C728.928 108.032 728.587 109.227 728.246 110.592C728.246 111.616 728.075 112.469 727.734 113.152C724.662 117.248 722.272 119.296 720.566 119.296C720.566 119.637 720.054 120.32 719.03 121.344C718.006 121.344 716.811 121.685 715.446 122.368C714.08 123.051 712.715 123.733 711.35 124.416V125.952C711.35 127.317 710.838 128 709.814 128C709.131 127.659 708.448 128.171 707.766 129.536V130.048C708.448 131.072 709.643 131.584 711.35 131.584L714.934 132.096C715.616 132.096 715.958 131.925 715.958 131.584C716.299 131.243 716.64 131.072 716.982 131.072C717.323 131.072 717.494 131.243 717.494 131.584C717.494 131.584 717.664 131.584 718.006 131.584C718.688 131.584 719.2 131.413 719.542 131.072C719.883 130.731 720.224 130.56 720.566 130.56L725.174 131.072C724.15 129.365 723.638 128 723.638 126.976C723.638 125.269 725.174 124.245 728.246 123.904C733.024 123.904 737.12 125.611 740.534 129.024C741.216 128.683 742.07 128.683 743.094 129.024C744.118 129.365 745.142 129.365 746.166 129.024L748.726 127.488L749.238 128C750.603 127.317 751.456 126.976 751.798 126.976C752.48 126.976 752.651 127.147 752.31 127.488C752.31 127.488 752.48 127.488 752.822 127.488C752.822 127.488 753.163 127.147 753.846 126.464C754.187 126.464 754.528 126.635 754.87 126.976C755.552 126.976 756.064 126.805 756.406 126.464L757.942 124.928H764.086L764.598 124.416C765.28 124.075 766.134 123.733 767.158 123.392C768.523 122.709 769.718 122.368 770.742 122.368C770.742 122.027 771.083 121.856 771.766 121.856C772.448 121.515 772.96 121.344 773.302 121.344H774.326C776.032 121.344 776.886 121.856 776.886 122.88C776.886 123.904 776.374 124.757 775.35 125.44C775.008 125.781 774.496 125.952 773.814 125.952C773.131 125.611 772.448 125.611 771.766 125.952C770.4 127.317 769.376 128 768.694 128C768.352 128 768.182 128 768.182 128C768.182 127.659 768.011 127.488 767.67 127.488C767.328 127.488 766.646 128 765.622 129.024L762.038 129.536H761.526C760.843 129.536 760.502 129.877 760.502 130.56C759.136 130.56 757.771 130.731 756.406 131.072C755.04 131.072 753.675 131.243 752.31 131.584L751.798 132.096C751.456 132.096 751.115 132.267 750.774 132.608C750.432 132.608 749.92 132.608 749.238 132.608C748.555 132.949 746.678 133.12 743.606 133.12C745.654 135.851 747.019 138.411 747.702 140.8C748.384 142.507 748.896 145.237 749.238 148.992C749.92 152.405 750.091 154.965 749.75 156.672C749.75 157.696 749.408 158.037 748.726 157.696C748.043 157.013 747.702 157.013 747.702 157.696C747.702 158.72 748.043 159.403 748.726 159.744C749.75 159.744 750.262 160.597 750.262 162.304C750.262 163.328 750.091 164.693 749.75 166.4C749.408 167.765 749.067 169.301 748.726 171.008C748.384 173.056 747.872 175.275 747.19 177.664C746.848 179.712 745.995 181.76 744.63 183.808L743.094 186.368V189.44C743.094 192.171 742.24 194.048 740.534 195.072C739.168 196.096 738.144 197.291 737.462 198.656C736.779 200.704 736.267 202.069 735.926 202.752C735.926 203.435 735.243 204.8 733.878 206.848C729.44 213.675 724.15 220.16 718.006 226.304C711.862 232.448 705.888 238.08 700.086 243.2C694.966 247.637 687.968 251.733 679.094 255.488C670.56 258.901 662.198 260.608 654.006 260.608ZM659.126 251.392C660.15 251.392 662.198 251.221 665.27 250.88C668.342 250.197 671.584 248.661 674.998 246.272C675.68 245.931 676.363 246.101 677.046 246.784C677.728 247.467 678.411 247.637 679.094 247.296C680.8 246.613 681.483 246.101 681.142 245.76C680.8 245.419 681.312 245.077 682.678 244.736H683.19C685.238 244.736 686.091 244.565 685.75 244.224C685.75 243.541 685.92 242.688 686.262 241.664C686.262 240.64 686.774 239.787 687.798 239.104C688.822 238.421 689.675 237.909 690.358 237.568C694.112 234.496 698.72 229.376 704.182 222.208C709.643 214.699 715.104 207.189 720.566 199.68C720.907 198.997 721.419 198.827 722.102 199.168C722.784 199.509 723.296 199.509 723.638 199.168C723.979 198.827 724.15 197.803 724.15 196.096C724.15 195.072 724.662 193.536 725.686 191.488C726.71 189.099 727.734 187.221 728.758 185.856C729.099 184.832 729.782 182.955 730.806 180.224C731.83 177.152 732.683 174.421 733.366 172.032C734.39 169.301 734.56 167.936 733.878 167.936C733.195 167.595 732.854 167.253 732.854 166.912C732.854 166.229 733.878 165.547 735.926 164.864C737.974 164.181 737.803 163.669 735.414 163.328C734.731 162.987 734.902 162.304 735.926 161.28C736.95 160.256 736.438 159.573 734.39 159.232C732.683 158.891 732 158.379 732.342 157.696C733.024 157.013 733.536 156.501 733.878 156.16C734.902 155.136 735.414 154.112 735.414 153.088C735.414 150.016 734.56 146.944 732.854 143.872C731.488 140.8 729.952 138.069 728.246 135.68C726.198 137.045 725.174 137.728 725.174 137.728C724.832 137.728 724.662 137.728 724.662 137.728C724.662 137.387 724.32 137.216 723.638 137.216C723.296 137.216 723.126 137.216 723.126 137.216C723.126 136.875 722.955 136.704 722.614 136.704C722.272 136.704 721.931 136.875 721.59 137.216C721.248 137.557 721.078 137.728 721.078 137.728C720.736 138.069 720.054 138.24 719.03 138.24C718.347 138.24 717.835 138.24 717.494 138.24C717.152 138.24 716.811 138.069 716.47 137.728C716.47 137.387 716.299 137.216 715.958 137.216C715.616 137.216 715.104 137.557 714.422 138.24C714.08 138.923 713.568 139.264 712.886 139.264C712.544 139.264 712.374 139.093 712.374 138.752C712.374 138.411 712.032 138.24 711.35 138.24C711.008 138.24 710.667 138.411 710.326 138.752C710.326 139.093 710.155 139.264 709.814 139.264C709.472 139.264 708.79 138.752 707.766 137.728H707.254C707.254 139.776 706.742 140.8 705.718 140.8C705.376 140.8 704.864 140.459 704.182 139.776C700.427 142.165 694.112 147.797 685.238 156.672C676.363 165.205 668.512 175.104 661.686 186.368C660.32 189.099 658.614 192.341 656.566 196.096C654.859 199.851 653.323 204.117 651.958 208.896C651.616 210.944 650.592 212.48 648.886 213.504C647.52 214.528 646.496 215.723 645.814 217.088C645.472 218.453 645.643 219.307 646.326 219.648C647.008 219.989 647.52 220.501 647.862 221.184C647.862 222.549 647.52 224.427 646.838 226.816C646.496 229.205 646.326 231.424 646.326 233.472C646.326 239.957 647.52 244.565 649.91 247.296C652.64 250.027 655.712 251.392 659.126 251.392Z" fill="#FF00A8"/>
</svg>
